<svg width="154" height="149" viewBox="0 0 154 149" fill="none" xmlns="http://www.w3.org/2000/svg">
<path d="M47.9171 34.1728C45.2572 34.2724 42.9805 37.032 44.0077 39.5386C44.9352 41.7616 47.9324 41.547 49.7645 40.7421C53.3519 39.209 51.8265 34.0348 47.9171 34.1728ZM50.0251 40.0139C48.423 41.0334 45.2035 41.2174 44.3986 39.4313C43.5937 37.6453 45.1652 35.1693 47.4265 34.832C50.899 34.2035 52.5241 38.4271 50.0251 40.0139ZM64.0376 36.871C64.6355 36.1045 65.793 35.4529 66.6592 35.8439C67.1652 36.0815 67.4641 35.4146 66.8892 35.3073C66.291 35.2024 65.6751 35.2776 65.1197 35.5232C64.5642 35.7689 64.0943 36.174 63.7693 36.6871C63.7573 36.7047 63.7488 36.7245 63.7444 36.7454C63.7399 36.7663 63.7397 36.7879 63.7436 36.8089C63.7475 36.8299 63.7555 36.8499 63.7672 36.8678C63.7788 36.8857 63.7939 36.9011 63.8115 36.9132C63.8291 36.9253 63.8489 36.9338 63.8698 36.9382C63.8907 36.9426 63.9123 36.9429 63.9333 36.939C63.9543 36.935 63.9743 36.927 63.9922 36.9154C64.0101 36.9037 64.0256 36.8887 64.0376 36.871ZM31.145 13.6139C32.5595 14.2208 34.0381 14.6657 35.5526 14.94C35.7366 14.94 35.8363 14.7178 35.8823 14.5798C36.493 12.6864 37.7385 11.0618 39.4084 9.98047C45.7937 6.22438 51.9415 12.6404 49.2662 18.7115C47.7791 22.0766 43.9004 23.0501 40.7345 23.9393C40.1673 24.1003 40.2976 24.3456 40.8495 25.6641C41.7796 27.9024 42.6969 30.1433 43.6014 32.3867C43.7854 32.8237 44.5673 32.54 44.8816 32.4787C45.3721 32.3944 48.0551 32.0801 48.1394 31.4132C48.2237 30.7463 46.499 27.1895 46.1694 26.4383C52.2558 24.7672 56.3721 18.3129 54.9847 12.0655C53.2446 4.31567 44.7589 2.48361 38.0363 4.71427C34.4948 5.89476 30.9687 9.06061 30.915 13.0773C30.915 13.4836 30.8384 13.4836 31.145 13.6139ZM37.1547 5.57281C43.816 2.9972 52.6084 4.23135 54.4251 12.2111C55.7896 18.1366 51.7038 24.3073 45.9317 25.8787C45.7018 25.94 45.4565 26.0474 45.8627 26.8522C46.5066 28.163 47.5261 30.7616 47.7561 31.2752C46.552 31.6689 45.3157 31.9562 44.0613 32.1338L40.8572 24.5296C43.8774 24.3303 48.5227 21.931 49.8105 18.9874C52.4014 13.0313 46.7596 5.94842 39.8606 9.19859C38.7946 9.70341 37.855 10.4405 37.1109 11.3557C36.3668 12.2709 35.837 13.3411 35.5603 14.4878L31.2676 13.2306C31.3213 9.96514 34.2188 6.7073 37.1547 5.57281ZM65.2871 38.9714C64.8272 38.5498 63.6237 40.3435 64.2369 40.7115C64.5819 40.9108 65.7547 39.4007 65.2871 38.9714ZM75.3213 38.5958C75.7609 38.8441 76.1289 39.2018 76.3895 39.6343C76.65 40.0668 76.7943 40.5593 76.8084 41.0641C76.8085 41.1011 76.8208 41.137 76.8434 41.1663C76.866 41.1956 76.8976 41.2167 76.9333 41.2263C76.969 41.2358 77.0069 41.2334 77.0411 41.2193C77.0754 41.2053 77.104 41.1803 77.1226 41.1484C77.5979 39.8989 76.6474 38.6648 75.6432 38.0055C75.2369 37.7296 74.9073 38.4731 75.3213 38.5958ZM69.8174 51.1595C70.8983 50.2857 72.6613 50.1324 73.5352 51.3972C74.1944 52.3554 73.6348 53.5282 72.4544 53.2369C72.1215 53.1017 71.7987 52.9429 71.4885 52.7616C71.4597 52.7509 71.4285 52.7483 71.3983 52.754C71.3681 52.7597 71.34 52.7736 71.3172 52.7941C71.2943 52.8146 71.2774 52.841 71.2684 52.8704C71.2595 52.8998 71.2587 52.9311 71.2662 52.9609C71.6878 54.2257 74.1868 54.1644 74.3784 52.501C74.6084 50.5156 71.6571 48.9365 69.6488 50.9679C69.6234 50.9903 69.6079 51.0218 69.6057 51.0556C69.6036 51.0894 69.6149 51.1226 69.6373 51.148C69.6596 51.1735 69.6912 51.1889 69.725 51.1911C69.7588 51.1933 69.792 51.1819 69.8174 51.1595ZM72.531 43.6933C73.2976 44.046 74.0641 42.1219 73.4432 41.8613C72.8223 41.6007 72.0558 43.494 72.531 43.6933ZM67.4948 46.5066C68.5756 46.9435 68.407 46.3839 68.2613 46.2536C67.3886 45.8106 66.4871 45.4265 65.5631 45.1038C66.6899 43.3177 67.7554 41.5087 68.9895 39.7916C69.0969 39.646 68.8669 39.462 68.7596 39.6153C67.5944 41.248 66.4139 42.8731 65.2871 44.5289C64.5666 45.5791 64.7965 45.4181 67.4948 46.5066ZM95.0522 110.123C95.5833 109.854 96.0056 109.41 96.2481 108.867C96.4906 108.323 96.5385 107.712 96.3838 107.138C96.2291 106.563 95.8812 106.059 95.3986 105.71C94.9159 105.362 94.3281 105.19 93.7338 105.224C89.7247 105.224 90.0543 112.867 95.0522 110.123ZM111.625 92.5456C113.296 94.1553 117.114 93.4654 115.933 90.0926C114.53 86.0682 108.59 89.625 111.625 92.5456ZM107.171 121.36C101.913 121.789 104.68 129.079 108.406 126.872C110.943 125.362 109.808 121.115 107.171 121.36ZM93.5881 83.9755C92.9826 81.4229 88.7205 80.7867 87.77 83.7456C86.2829 88.4139 94.5617 88.0919 93.5881 83.9755ZM126.144 109.962C120.816 111.893 128.857 119.72 130.229 112.721C130.743 110.146 128.298 109.18 126.144 109.962ZM76.0112 98.1951C75.4137 98.2812 74.8631 98.5675 74.4494 99.0071C74.0357 99.4466 73.7833 100.014 73.7335 100.615C73.6837 101.217 73.8393 101.817 74.1751 102.319C74.5108 102.821 75.0068 103.194 75.5819 103.377C79.5296 104.557 80.1965 97.5818 76.0112 98.1951Z" fill="#0D1321"/>
<path d="M138.868 120.118C138.6 108.13 131.279 95.6578 123.836 86.5128C125.63 84.0553 126.641 81.1147 126.74 78.0739C126.838 75.0331 126.019 72.0332 124.388 69.4648C122.295 66.1686 119.474 65.0264 118.585 62.5658C117.512 59.6376 118.854 56.4334 118.67 53.4745C118.455 49.9177 116.37 46.0007 112.698 45.0425C110.261 44.4062 106.658 45.5407 105.347 41.0948C104.32 37.6069 106.114 32.4481 103.047 27.5805C101.407 24.9665 98.517 23.5178 95.7038 22.5289C92.147 21.2794 87.9386 20.7888 84.5122 22.6439C82.4636 21.8545 80.253 21.5782 78.0731 21.839C80.4878 19.3247 81.5226 14.0969 80.3728 10.7854C80.0202 9.75818 74.0641 13.9972 73.6348 19.3017C71.2202 16.4732 68.8362 15.5303 65.3254 15.078C63.9763 14.9017 66.7895 21.908 69.2042 22.8355C67.3644 23.0042 64.8195 23.6021 63.4934 24.9589C63.0775 25.4601 62.7668 26.0399 62.5797 26.6638C62.3927 27.2877 62.3332 27.9428 62.4047 28.5902C62.4762 29.2375 62.6774 29.8638 62.9961 30.4318C63.3148 30.9998 63.7446 31.4978 64.2599 31.8961C61.5233 36.2502 59.1164 41.0411 58.6641 46.2383C56.4858 46.7799 54.608 48.1566 53.4362 50.0711C50.1784 54.8237 53.9651 56.97 52.754 60.7261C51.3205 65.2411 46.9895 63.5623 44.9352 66.5595C43.4021 68.7289 43.7624 71.7874 45.2495 73.8954C43.0035 75.1832 40.1749 76.7853 38.3965 78.6327C38.8028 66.8202 37.2697 55.8968 36.6718 53.4592C36.5875 53.1373 35.384 53.3902 35.062 53.4132C35.7183 51.9945 36.1699 50.4898 36.4035 48.9442C36.5338 47.5031 36.4035 45.4411 34.5561 45.3261C34.3951 44.8738 34.5561 40.2209 31.6049 37.6606C30.961 37.101 30.2787 36.9937 30.2941 38.0132C30.2941 39.5463 31.3596 40.8878 31.5052 43.3791C30.805 43.4195 30.1314 43.6618 29.5659 44.0766C26.9673 43.4021 24.154 49.3045 26.4997 49.7414C26.1908 50.8368 26.2638 52.0046 26.7066 53.0529C26.4997 53.0529 26.0551 52.8843 25.9401 53.1219C20.3979 63.9303 12.5868 83.2703 14.7254 95.1672C17.2167 109.019 32.1261 112.867 44.3066 111.487C45.0233 118.378 47.0474 125.07 50.2704 131.203C51.1749 132.904 54.8697 140.187 56.9164 141.888C56.3319 144.334 56.0361 146.84 56.0348 149.355C56.0348 149.6 56.4028 149.562 56.4104 149.355C56.4945 147.002 56.8104 144.662 57.3533 142.371C59.0454 143.082 60.7724 143.706 62.5275 144.242C76.3188 148.369 90.9996 148.489 104.856 144.587C106.888 144.012 109.072 143.475 110.843 142.287C111.541 144.587 112.307 146.787 113.051 149.033C113.056 149.051 113.065 149.069 113.078 149.084C113.09 149.099 113.105 149.111 113.122 149.121C113.139 149.13 113.158 149.136 113.177 149.138C113.197 149.14 113.216 149.138 113.235 149.132C113.253 149.127 113.271 149.118 113.286 149.105C113.301 149.093 113.313 149.078 113.323 149.061C113.332 149.044 113.338 149.025 113.34 149.006C113.342 148.987 113.34 148.967 113.334 148.948C112.645 146.48 111.978 144.012 111.234 141.566C111.726 139.374 111.983 137.136 112.001 134.89C116.692 135.564 123.33 136.116 127.945 135.189C132.56 134.261 136.415 131.755 137.91 127.132C138.63 124.867 138.954 122.494 138.868 120.118ZM89.3874 27.5498C90.7979 30.2174 91.1811 34.1191 90.7365 37.055C90.4471 39.2746 89.5535 41.3721 88.1533 43.1184L87.3867 42.9038C89.2801 36.7714 87.5477 29.7575 82.1588 25.986C80.0188 24.6221 77.6253 23.7043 75.1219 23.2878C79.6216 20.6969 86.9498 22.9198 89.3874 27.5498ZM80.1352 11.2836C80.5798 17.3547 79.6752 19.4244 77.069 22.0153C76.575 22.122 76.0961 22.2894 75.6432 22.5136C75.2585 21.4919 74.7067 20.5412 74.0104 19.7003C74.662 16.1895 76.655 12.6481 80.1352 11.2836ZM65.5324 15.492C65.5324 15.3847 65.5324 15.4077 65.6244 15.4307C70.8292 16.6188 72.7763 18.0446 75.1756 22.7742C74.9916 22.8897 74.8196 23.0233 74.662 23.1728C73.1818 22.8717 71.6724 22.738 70.1623 22.7742C67.7554 22.3526 65.9233 17.6766 65.5324 15.492ZM64.8425 32.1951C69.8251 34.9164 77.7665 37.2467 83.6536 36.4801C82.0534 38.4124 81.2332 40.8731 81.354 43.3791C81.446 45.3261 82.6494 46.5986 84.3435 45.1575C85.225 44.3909 86.3519 43.0495 87.6703 43.4864C88.9888 43.9233 88.8125 45.4334 88.2682 46.5526C86.2522 50.6843 82.3811 49.9944 83.8836 59.5303C84.1398 61.1527 84.5426 62.7485 85.0871 64.2982C84.8314 65.5441 84.148 66.6613 83.1554 67.4564C78.6097 71.5804 69.871 70.5916 70.0167 64.9268C70.0598 63.3646 70.0214 61.8013 69.9017 60.2432C66.8892 59.6299 63.0641 58.2348 61.186 55.5979C60.5444 54.6379 60.0725 53.5748 59.7909 52.455C58.4955 47.9477 59.3846 43.1338 61.2014 38.8948C62.208 36.5551 63.4268 34.3125 64.8425 32.1951ZM85.5853 64.5972C86.4285 64.6738 87.2334 64.7888 88.0306 64.9191C88.0306 65.5324 88.7972 67.9853 88.2069 70.9442C87.632 74.0794 85.409 77.3372 82.0055 77.6132C76.8697 78.0195 75.6815 72.9526 75.7045 70.4843C82.2738 70.9519 85.8536 65.655 85.5853 64.5972ZM74.7003 70.3616C74.34 70.3616 73.4585 73.8878 70.2697 74.6083C67.2494 75.2982 65.4097 72.8836 65.9693 70.009C66.4062 67.7094 68.085 66.1226 68.4146 65.4097L69.4801 65.1721C69.2501 68.1003 71.7568 69.8634 74.7003 70.3616ZM35.2613 45.993C36.4571 46.7596 35.8669 49.6571 35.5066 50.7456C35.2153 51.6425 34.8704 52.5317 34.5484 53.4209C32.1051 53.5298 29.657 53.4117 27.2355 53.0683C26.9055 51.9686 26.791 50.8155 26.8983 49.6724C27.248 49.576 27.5522 49.3588 27.7568 49.0592C28.4697 49.8947 29.5199 48.6989 30.0564 48.1853L31.3979 48.4C30.4814 49.0593 29.8164 50.0109 29.5122 51.0982C29.5149 51.1319 29.5286 51.1637 29.5512 51.1888C29.5738 51.2138 29.6041 51.2307 29.6372 51.2368C29.6704 51.243 29.7047 51.2379 29.7348 51.2226C29.7648 51.2072 29.789 51.1824 29.8035 51.1519C30.0233 50.5557 30.3644 50.0116 30.805 49.5538C31.2457 49.096 31.7764 48.7344 32.3638 48.492C33.3449 48.2083 33.1303 47.8174 32.3638 47.9707C32.1261 48.0167 29.7192 47.8941 29.6732 47.5031C29.6272 47.1122 33.8892 45.1191 35.2613 45.993ZM31.6125 43.8007V44.7205C31.6125 44.8662 31.8732 44.8738 31.9038 44.7205C32.5094 41.3707 30.8997 39.8989 30.8997 37.8829C30.8997 37.5073 31.1526 37.7756 31.3289 37.8829C33.8432 39.8989 34.0578 43.6014 34.1115 45.2878C32.6072 45.4274 31.1598 45.9327 29.8955 46.7596C29.2516 47.1122 28.7227 47.6947 29.6118 48.078C29.2439 48.3463 28.3087 49.4042 27.9714 48.6069C27.6342 47.8097 28.8683 43.862 31.5895 43.7853L31.6125 43.8007ZM26.2084 48.7756C26.0627 47.0432 27.3275 44.6745 29.1289 44.4599C28.1017 45.4641 27.1819 47.7714 27.5268 48.7832C27.2125 49.2048 26.2467 49.7721 26.1854 48.7603L26.2084 48.7756ZM26.308 53.2906C29.4125 54.1951 33.0537 53.8885 36.2732 53.7888L36.8941 58.1275C32.7649 58.4621 28.6087 58.1177 24.5909 57.108C25.1429 55.8202 25.7254 54.563 26.285 53.2752L26.308 53.2906ZM136.691 128.719C133.165 124.649 129.386 131.019 132.605 132.889C129.869 134.476 126.672 134.966 123.553 135.051C112.269 135.357 100.41 132.544 90.2229 127.753C90.7442 121.621 89.3108 116.853 87.2334 113.718C95.8418 111.518 102.472 110.966 110.766 110.475C110.904 110.475 110.935 110.23 110.766 110.222C109.159 110.147 107.549 110.175 105.945 110.307C105.799 109.624 100.794 104.542 95.9797 94.209C95.9031 94.048 95.6501 94.1247 95.7191 94.2933C98.1467 99.7676 101.219 104.932 104.872 109.678C105.033 109.893 105.201 110.107 105.385 110.314C96.9463 110.79 88.6076 112.383 80.5874 115.052C80.2195 115.182 80.4724 115.557 80.6871 115.726C79.5403 115.785 78.4038 115.973 77.2989 116.286C76.793 116.002 75.1143 115.887 73.8724 114.684C72.3393 113.15 72.2167 116.738 74.1714 117.581C68.9435 120.44 67.763 124.718 69.2808 124.557C69.6488 124.518 69.94 124.158 70.2007 123.905C70.6529 123.484 71.1205 123.07 71.5651 122.625C69.3805 127.224 71.6648 128.635 72.2857 126.458C72.7017 125 73.495 123.678 74.5853 122.625C73.2822 125.17 74.432 128.32 75.5512 127.47C76.1798 126.979 75.9498 124.403 78.1345 123.185C78.3798 123.054 78.6404 122.97 78.901 122.847C79.5986 123.721 81.8829 124.909 84.4662 124.902C84.5428 125.078 84.5505 125.162 84.6578 125.231C92.9114 130.072 102.021 133.275 111.487 134.668C111.468 136.987 111.211 139.299 110.72 141.566C108.536 143.038 103.484 144.272 100.824 144.87C90.5914 147.148 79.998 147.284 69.7101 145.269C67.3414 144.801 58.6334 142.862 57.246 141.252C54.6474 138.24 53.4822 135.526 51.5275 132.054C47.6258 125.116 44.8815 116.071 44.7742 108.107C44.6168 101.906 46.2338 95.7889 49.4348 90.4759C50.9383 88.2426 52.566 86.0954 54.3101 84.0446C54.4327 83.9066 54.2181 83.7149 54.1031 83.8529C51.1672 87.1874 48.63 90.2076 46.8669 94.3317C44.7033 99.5293 43.8301 105.173 44.3219 110.782C34.8091 111.985 24.0544 110.176 18.1673 101.844C20.6892 100.817 19.8843 95.3205 15.5993 96.2404C13.6446 88.5749 16.7185 77.2989 19.2174 70.1777C20.7505 65.8007 22.5596 61.5386 24.476 57.3073C26.4307 58.2808 32.8544 58.9784 36.9937 58.5798C38.1066 67.6734 38.3377 76.8534 37.6836 85.9916C37.6836 86.1602 37.9366 86.1602 37.9672 85.9916C38.2993 83.7452 38.4735 81.4783 38.4885 79.2076C41.7923 76.0724 47.4955 73.0752 51.6195 71.1359C51.0446 72.6306 52.547 74.3937 54.1108 74.386C57.3303 74.386 57.361 69.9937 55.115 69.5951C59.1836 67.9147 63.3797 66.5613 67.6634 65.5477C66.1303 67.6097 64.5972 70.2313 65.7087 72.8376C67.0118 75.9651 71.6264 76.2794 74.3017 71.9331C70.7767 79.3346 68.5 87.2681 67.5637 95.4125C67.5637 95.5965 67.8167 95.6578 67.8474 95.4738C69.0199 87.074 71.5112 78.912 75.2292 71.2892C75.2616 72.9899 75.8244 74.6381 76.839 76.0034C80.7561 81.1547 91.0202 77.023 88.6055 65.0035C94.3292 66.0205 99.8346 68.0172 104.879 70.9059C104.329 71.3901 103.975 72.0592 103.885 72.7866C103.794 73.5141 103.974 74.2494 104.389 74.8536C104.6 75.1766 104.874 75.4547 105.193 75.6719C105.512 75.8891 105.871 76.0413 106.249 76.1196C106.627 76.1979 107.017 76.2009 107.396 76.1284C107.775 76.0558 108.137 75.9092 108.459 75.6968C108.76 75.4736 109.004 75.1821 109.171 74.8463C109.337 74.5105 109.422 74.14 109.417 73.7651C117.773 79.5909 124.511 87.471 129.877 96.0641C133.993 102.656 137.603 110.452 138.201 118.386C138.462 121.881 138.255 125.553 136.691 128.704V128.719ZM75.8195 121.115L75.1066 121.881C71.7261 124.181 72.0404 127.73 71.2738 127.002C70.331 126.082 71.9101 122.05 73.3282 120.793C74.5393 119.72 73.1366 119.873 72.0327 121.736L71.9714 121.797C71.1136 122.493 70.2923 123.232 69.5108 124.012C67.7937 125.592 70.0627 116.953 81.078 116.132C83.3777 118.24 83.9756 121.437 84.3818 124.434C81.2543 124.434 79.1003 122.479 78.8167 122.51C77.1073 122.709 76.0034 124.641 75.5818 126.128C75.5282 126.312 75.4055 127.125 75.2216 127.186C74.6467 127.385 73.5505 123.721 75.9881 121.353C76.1721 121.169 75.9651 120.969 75.8195 121.115ZM74.547 117.374C73.1749 116.96 72.7763 114.63 73.2822 114.737C74.2151 115.567 75.3236 116.175 76.5247 116.516C75.8422 116.735 75.1804 117.015 74.547 117.351V117.374ZM80.894 115.519C80.6794 115.519 85.4933 114.147 86.8655 113.794C89.809 119.061 90.0313 122.993 89.6787 127.508L85.0181 125.093C84.5122 120.724 83.1477 116.953 80.894 115.496V115.519Z" fill="#0D1321"/>
<path d="M33.6823 101.43C34.6328 103.323 39.0481 102.672 38.9025 99.7512C38.7032 95.5658 31.4669 97.0376 33.6823 101.43ZM30.1868 66.0843C30.3018 62.0139 25.3959 62.6425 24.8823 66.6515C24.614 68.7059 30.0641 70.469 30.1868 66.0843ZM29.4739 77.0306C28.4467 78.0195 28.5234 81.3233 31.3979 81.2466C36.3575 81.124 32.7087 73.9261 29.4739 77.0306ZM55.1227 120.348C56.6558 122.487 60.2509 120.931 59.6453 118.148C58.7868 114.216 52.5931 116.853 55.1227 120.348ZM58.5032 86.9038C55.3833 86.9038 54.9694 91.2041 57.223 92.2006C62.5659 94.5616 62.8035 86.9038 58.5032 86.9038ZM78.4411 138.585C81.446 140.639 85.3401 135.679 81.9672 133.725C78.4181 131.647 75.2829 136.446 78.4411 138.585Z" fill="#0D1321"/>
</svg>
