<svg width="154" height="154" viewBox="0 0 154 154" fill="none" xmlns="http://www.w3.org/2000/svg">
<path fill-rule="evenodd" clip-rule="evenodd" d="M72.9755 24.5296C73.2514 24.6139 74.4242 25.1428 74.6159 25.1428C74.6918 25.131 74.7609 25.0925 74.8109 25.0341C74.8608 24.9758 74.8883 24.9015 74.8883 24.8247C74.8883 24.7479 74.8608 24.6736 74.8109 24.6153C74.7609 24.557 74.6918 24.5184 74.6159 24.5066C74.5239 24.5066 74.1559 24.3303 73.9106 24.2306C72.9755 23.8397 72.8758 23.8014 72.6995 24.0007C72.658 24.0495 72.6321 24.1096 72.6249 24.1732C72.6178 24.2369 72.6298 24.3012 72.6594 24.358C72.6891 24.4148 72.735 24.4615 72.7913 24.492C72.8476 24.5226 72.9117 24.5357 72.9755 24.5296ZM81.2542 31.4285C80.7439 31.9189 80.1111 32.2631 79.4221 32.4251C79.4221 32.4251 78.7169 32.5477 79.1845 32.747C79.5223 32.901 79.9062 32.9202 80.2577 32.8007C81.1239 32.5477 81.5838 31.8272 81.5072 31.4362C81.3768 31.2369 81.4382 31.2369 81.2542 31.4285ZM90.1538 132.912C90.385 133.633 90.6988 134.325 91.089 134.974C93.1127 138.73 94.8298 141.191 94.7455 141.191H95.0061C95.0521 140.371 90.7058 132.828 90.1538 132.912ZM96.0946 131.402C95.8876 131.402 95.6577 131.088 96.3399 132.49C97.2828 134.415 99.3294 138.102 100.748 139.696C101.89 140.57 97.2904 133.027 96.0946 131.402ZM113.557 135.618C113.304 135.687 113.281 135.618 113.373 135.863C114.235 138.343 115.372 140.719 116.761 142.946C117.397 143.713 115.435 138.623 113.557 135.618ZM127.109 131.785C126.795 131.716 126.726 131.609 127.493 133.318C128.259 135.028 130.467 138.975 130.781 138.968C130.842 138.968 130.873 138.93 130.896 138.861C129.873 136.382 128.605 134.011 127.109 131.785Z" fill="#0D1321"/>
<path fill-rule="evenodd" clip-rule="evenodd" d="M82.2814 24.9512C82.8758 24.6273 83.5134 24.3899 84.1748 24.246C84.2571 24.2287 84.3292 24.1794 84.3752 24.109C84.4212 24.0385 84.4374 23.9527 84.4201 23.8704C84.4028 23.788 84.3535 23.7159 84.2831 23.6699C84.2127 23.6239 84.1268 23.6078 84.0445 23.6251C84.0445 23.6251 81.6452 24.2153 81.7448 24.7826C81.7565 24.8387 81.7828 24.8908 81.8213 24.9333C81.8598 24.9758 81.9089 25.0073 81.9636 25.0245C82.0183 25.0417 82.0766 25.044 82.1325 25.0311C82.1884 25.0182 82.2398 24.9906 82.2814 24.9512Z" fill="#0D1321"/>
<path fill-rule="evenodd" clip-rule="evenodd" d="M135.756 129.363C134.974 128.883 134.137 128.497 133.265 128.213C131.736 127.674 130.138 127.359 128.52 127.278C120.548 126.964 117.696 132.912 109.755 131.601C105.155 130.835 100.786 128.251 98.0264 127.531C93.7797 126.412 90.1386 128.006 86.1832 130.022C84.4048 130.927 81.0703 133.778 80.8786 133.088C80.0431 131.601 79.8438 123.499 79.9511 112.76C84.1441 113.143 92.6988 111.824 99.4752 108.49C102.832 106.793 105.574 104.088 107.317 100.755C107.918 99.703 108.394 98.5839 108.735 97.4208C111.418 88.0766 110.82 83.9756 110.966 79.6445C116.178 73.5581 116.332 55.5595 107.585 44.046C105.615 41.3937 100.556 38.1819 98.8849 37.5609C99.125 37.4006 99.321 37.1825 99.455 36.9267C99.5889 36.6709 99.6564 36.3855 99.6515 36.0968C99.7358 34.763 99.4675 34.3644 100.717 33.6439C101.199 33.4172 101.632 33.0966 101.989 32.701C102.345 32.1823 102.633 31.6208 102.848 31.0299C103.829 27.8488 100.686 27.8948 101.529 22.6592C101.661 21.9208 101.697 21.1685 101.637 20.4209C101.612 19.7813 101.384 19.1663 100.985 18.6655C100.529 18.1467 100.14 17.5724 99.8278 16.9561C99.2682 15.1394 99.4675 13.5373 98.7086 12.0118C98.1864 11.007 97.5539 10.0634 96.8229 9.1986C94.8835 6.9756 92.6452 7.50452 90.0159 6.27804C89.0989 5.79231 88.1485 5.37221 87.172 5.0209C85.0738 4.55379 82.9097 4.46038 80.779 4.74494C78.3644 5.14355 74.3553 7.43553 72.0556 10.4941C71.5646 11.1293 71.1262 11.8035 70.7449 12.5101C69.6688 14.6607 68.9417 16.9687 68.5909 19.3477C68.4222 20.6202 68.8438 20.4746 68.4145 21.7317C67.5713 21.816 67.5483 21.8543 67.5177 22.0153C67.6132 22.4091 67.7494 22.7918 67.924 23.1575C67.6787 23.8857 67.4334 24.6139 67.3644 24.8669C67.0807 26.4 67.9623 27.9331 67.2264 29.1749C66.6208 30.1867 65.0341 30.708 64.7044 31.9805C64.2598 33.6592 65.1797 35.2613 66.3908 36.5338C66.4972 36.6753 66.6367 36.7884 66.7971 36.8634C62.3511 38.5498 59.6682 42.0683 59.6912 42.2906L55.4598 41.7386C55.1916 41.7386 55.5365 41.3554 55.1302 47.7867C54.9869 47.6526 54.7976 47.5785 54.6013 47.5798C53.2139 47.5798 52.7386 50.692 52.6159 52.0717C52.432 54.0648 52.4243 55.9045 54.0801 57.0696C54.2116 57.1617 54.353 57.2388 54.5017 57.2996C54.287 60.4348 54.0571 63.9456 53.8194 67.694C50.5061 66.8747 47.1065 66.4552 43.6933 66.4446C40.7244 66.3958 37.7737 66.9162 35.0006 67.9777C28.1017 70.4153 22.8585 74.409 18.7038 81.8829C18.6578 81.9595 16.2125 86.4822 15.5149 88.1686C14.4954 90.6062 14.1198 93.1665 16.6877 93.7721C17.4017 93.9184 18.1424 93.8627 18.8264 93.6111C17.8222 98.1184 14.8404 115.649 14.8327 115.749C13.6215 115.343 5.2968 112.798 4.13931 113.288C4.01616 113.343 3.91867 113.442 3.86724 113.566C3.81581 113.691 3.81442 113.83 3.86335 113.955C4.43827 115.749 14.9707 122.28 17.416 123.415C18.4891 123.905 18.4738 123.683 18.8341 123.07C21.9539 117.811 26.8062 105.623 30.179 100.18C29.1595 111.403 33.0306 127.01 36.3114 137.826C34.7783 138.776 29.7191 141.206 28.0097 142.916C27.9407 142.992 25.5874 144.679 27.1511 145.384C27.6647 145.667 29.6348 145.568 31.9651 145.323C32.9616 145.208 42.4515 144.111 42.9267 143.345C43.2947 142.862 42.7888 140.493 42.6431 139.711C42.2117 137.01 42.0346 134.274 42.1142 131.54C42.3365 121.667 46.7135 110.437 49.9483 105.899C50.8525 106.908 51.5225 108.104 51.9107 109.402C51.6961 121.245 51.972 131.341 53.2138 136.132C54.0125 139.659 56.151 142.737 59.1776 144.717C67.1727 150.006 81.7525 149.37 90.6062 146.748C94.1706 145.69 98.54 143.751 102.518 144.104C105.546 144.364 107.539 145.89 112.706 146.84C120.164 148.205 122.671 145.644 126.925 143.774C131.525 141.773 134.752 140.762 139.481 142.494C141.12 143.174 142.693 144.003 144.18 144.97C145.001 145.537 144.947 145.683 145.254 145.668C145.314 145.661 145.37 145.636 145.415 145.597C145.461 145.557 145.493 145.504 145.506 145.445C145.506 145.231 146.143 146.411 135.756 129.363ZM30.225 99.6515C27.3964 103.929 23.2724 113.02 20.4208 118.815C18.7508 117.872 17.0745 116.939 15.3923 116.017C15.6376 114.875 19.0257 94.2857 19.1637 93.5191C21.701 92.5686 24.3302 90.2306 28.071 92.8752C29.0752 93.5881 30.0717 94.6843 31.1372 95.6194C30.8141 96.2561 30.6016 96.943 30.5086 97.6508C30.3937 98.2794 30.294 98.9386 30.2173 99.6208L30.225 99.6515ZM41.7233 137.136C40.1178 137.201 38.5217 137.414 36.9553 137.772C34.2724 128.274 28.5616 109.356 30.8842 97.5358C31.0069 96.8919 31.1142 96.4856 31.1909 96.2174C31.3672 95.6731 31.3672 95.7958 31.6815 96.0334C35.0236 98.586 36.9783 96.8919 40.0139 97.9804C40.9086 98.3131 41.7445 98.7867 42.4898 99.3832C43.451 100.243 44.1655 101.344 44.5595 102.572C44.7308 103.086 45.051 103.536 45.4794 103.868C47.1581 105.339 48.4689 104.672 49.8104 105.761C49.6877 105.784 40.1442 119.773 41.6849 137.113L41.7233 137.136ZM101.33 106.757C98.402 108.842 91.2961 111.686 83.2856 112.361C81.4306 112.522 80.3804 112.499 79.9894 112.583C79.9894 111.403 79.9894 110.192 80.0431 108.957C81.0013 108.881 83.4236 108.497 83.7839 108.436C88.0612 107.67 94.3929 106.137 97.5818 103.17C98.3483 103.845 98.3483 103.891 98.5553 103.837C99.5277 102.987 100.39 102.018 101.123 100.955C103.745 97.2599 105.585 92.6222 105.968 85.7923C105.968 85.7309 106.052 83.9756 106.037 83.3623C107.84 82.6121 109.446 81.4552 110.728 79.9818C110.207 89.5714 109.617 100.794 101.292 106.734L101.33 106.757ZM79.8668 57.4606C78.9603 57.1405 78.0874 56.7322 77.2605 56.2418C77.1763 56.1644 77.1217 56.0599 77.1063 55.9465C77.0909 55.8332 77.1156 55.718 77.1762 55.6209C77.7665 55.0383 79.2076 55.4599 79.9741 55.7818C80.1044 55.8355 80.3114 55.9275 80.4187 55.6669C80.526 55.4062 80.4187 55.4216 79.6522 54.9463C79.4069 54.793 78.7936 54.4021 78.372 54.0878C78.0963 53.9235 77.8792 53.6768 77.7511 53.3825C77.6975 53.1296 77.9351 52.7693 78.5177 52.7923C79.5937 52.9979 80.5991 53.4755 81.4382 54.1798C81.4648 54.2093 81.4973 54.2329 81.5336 54.2491C81.57 54.2653 81.6093 54.2736 81.649 54.2736C81.6888 54.2736 81.7281 54.2653 81.7644 54.2491C81.8007 54.2329 81.8332 54.2093 81.8598 54.1798C82.0515 53.9115 81.9978 52.3094 82.5497 51.2055C82.657 51.0446 82.7414 50.8453 82.91 50.8376C83.5999 50.8376 83.6306 52.616 83.6152 53.2676C83.6152 55.2529 83.2396 55.0613 83.7532 55.6209C84.3555 56.1982 85.0156 56.712 85.7232 57.154C85.4856 57.4683 86.1372 56.6404 82.5037 61.1247C82.0898 60.7108 81.5455 59.354 81.1316 59.4919C79.9894 60.0669 76.7623 58.986 76.8849 58.0508C76.9692 57.3839 78.418 57.6446 79.1386 57.7519C79.8591 57.8592 79.7901 57.8669 79.9051 57.7519C79.9241 57.7288 79.938 57.7019 79.9461 57.6731C79.9541 57.6443 79.956 57.6141 79.9516 57.5846C79.9473 57.555 79.9368 57.5266 79.9209 57.5013C79.905 57.476 79.8839 57.4543 79.8591 57.4376L79.8668 57.4606ZM76.3713 30.3094C76.9064 30.5924 77.488 30.7767 78.0884 30.8536C78.2494 30.7003 78.2417 30.7617 78.0884 30.6007C77.5598 30.426 77.0628 30.1672 76.6166 29.8341C76.6856 29.3895 77.7741 26.5226 78.0347 25.6488C78.1957 25.1122 78.2417 24.9742 78.372 24.4836C78.7652 24.4607 79.1593 24.4607 79.5525 24.4836C79.5581 25.2506 79.6769 26.0126 79.9051 26.7449C80.5644 27.8411 83.5539 27.9101 84.8264 27.8564C86.0989 27.8028 86.6124 27.7414 87.126 27.0132C86.5205 29.2659 86.1758 31.5808 86.0988 33.9122C85.7352 34.5878 85.2309 35.1775 84.62 35.6417C84.0091 36.1058 83.3057 36.4335 82.5574 36.6028C78.7783 37.2007 76.7853 36.3728 74.6389 33.3833C73.555 31.8673 72.8577 30.1095 72.6076 28.2627C73.9887 28.3304 75.3685 28.103 76.655 27.5958C75.8347 29.7958 75.9344 30.0411 76.3713 30.3094ZM80.2041 22.092C81.1239 21.9157 85.9379 22.138 88.5595 22.1916C88.2605 22.9582 87.8619 24.223 87.4633 25.6718C87.2419 26.2732 86.9205 26.833 86.5128 27.3275C85.9455 27.6495 82.2891 27.5805 80.8633 26.8063C80.1811 26.446 80.1811 26.3923 80.1811 22.092H80.2041ZM83.8988 36.7944L83.8299 36.8941C83.1496 38.0311 82.3807 39.1128 81.5302 40.1289C81.2466 39.7073 79.9971 37.8292 79.6982 37.2927C80.6664 37.3885 81.6431 37.3576 82.6034 37.2007C83.0538 37.1338 83.4909 36.9967 83.8988 36.7944ZM74.7002 38.2662C74.8842 40.3381 75.2484 42.39 75.7887 44.3986C74.8112 44.1563 73.8208 43.9694 72.8222 43.839C73.2055 42.8425 74.5623 38.5728 74.6849 38.2508L74.7002 38.2662ZM75.2215 37.0934C75.7601 36.8686 76.2739 36.5886 76.7546 36.2578C77.5346 36.7886 78.4264 37.1322 79.3609 37.262C79.8001 38.3692 80.3443 39.4319 80.986 40.4355C76.8543 44.3296 76.6703 44.5749 77.0689 44.5136C77.8354 44.3526 80.756 41.524 81.2926 41.0028C81.9441 41.662 84.7114 45.2494 85.2403 45.8474C85.5086 46.062 85.6696 45.7937 85.9302 45.5484C87.0264 44.5212 87.5476 44.069 87.8236 43.8543C81.4229 61.8146 85.1177 53.5818 83.7379 50.9219C83.6611 50.7098 83.5072 50.5344 83.3069 50.4307C83.1066 50.327 82.8746 50.3026 82.657 50.3623C82.4702 50.4606 82.3056 50.5965 82.1737 50.7614C82.0418 50.9263 81.9454 51.1166 81.8905 51.3205C82.0055 48.0857 82.0668 45.9547 82.0285 45.3491C82.0285 45.1958 82.5037 45.2494 76.034 44.4139C76.0417 44.3219 75.2215 37.1547 75.2062 37.078L75.2215 37.0934ZM82.3657 61.3777C82.0821 61.7609 81.8292 62.1442 81.5992 62.4202C81.5992 61.6996 81.6759 61.0557 81.7142 60.5038C81.8744 60.825 82.0897 61.1156 82.3504 61.3623L82.3657 61.3777ZM81.5072 64.5818C85.7386 76.9616 91.6333 87.5783 104.166 83.9985C104.711 83.8452 105.24 83.6689 105.769 83.462C105.769 90.5372 103.63 98.4863 98.4556 103.316C92.9634 98.1815 86.9666 93.6152 80.5567 89.6864C80.7253 81.7066 81.1469 71.1742 81.4919 64.5665L81.5072 64.5818ZM93.0055 38.0285C94.0038 38.1646 94.9869 38.3956 95.9414 38.7184C96.3065 38.859 96.7107 38.859 97.0758 38.7184C97.5095 38.5588 97.9175 38.3368 98.287 38.0592C99.6285 38.1819 104.182 41.294 106.182 43.2641C108.482 45.5637 111.096 50.278 112.637 55.6745C114.706 63.2174 115.22 75.7045 108.727 80.9707C105.132 83.8836 99.3755 84.8034 95.5657 83.416C88.0459 80.756 84.3358 70.9289 81.7678 63.386C81.9901 62.4968 86.4591 57.131 87.011 56.4871C92.2696 56.3491 102.388 63.9763 103.683 66.8355L103.913 66.7282C102.764 64.1679 94.9525 57.8439 89.303 56.3261C89.4793 54.839 89.7859 50.6076 89.7859 50.531C91.5797 50.4007 93.5421 50.6613 93.6187 50.1554C93.6647 49.2585 92.0856 39.9373 91.7636 38.2585C92.145 38.0906 92.5581 38.0069 92.9748 38.0132L93.0055 38.0285ZM90.3455 38.8641C90.7444 38.7231 91.1358 38.5619 91.5184 38.3812C91.5184 38.4578 92.9365 49.7798 92.9441 49.8794C88.9504 50.0327 89.188 49.6188 89.1497 51.1519C89.1497 51.2209 89.0424 55.6439 89.0271 56.3031C88.6515 56.2111 87.011 55.8892 86.7274 56.0961C86.6048 56.2188 86.3518 56.5024 86.0145 56.8627C85.6772 56.6097 84.9337 56.0961 84.4278 55.6285C84.9797 54.4251 83.6229 57.5449 90.3149 38.8488L90.3455 38.8641ZM88.0459 43.4021C87.1661 43.9526 86.3283 44.5675 85.5393 45.2418C84.8954 44.3679 82.8947 41.7386 81.9288 40.7038C82.8124 39.7581 83.5117 38.6559 83.9908 37.4536C84.1092 37.2125 84.1869 36.9535 84.2208 36.6871C84.9729 36.2657 85.6304 35.6943 86.1525 35.0083C86.3441 37.4076 87.264 39.186 89.6173 39.0327C89.234 39.9066 88.7358 41.2864 87.9922 43.3867L88.0459 43.4021ZM71.9483 18.8725C72.4313 19.6927 72.4083 19.8306 72.8759 20.0759C73.4072 20.3253 73.9913 20.4411 74.5776 20.4132C75.6508 20.2752 76.3407 19.2251 77.3602 19.1024C77.5595 19.1024 79.8668 20.6815 81.1929 20.2599C82.5191 19.8383 83.2013 18.8111 84.1595 19.2787C85.1177 19.7463 85.5469 21.0341 87.6166 20.3519C88.2681 20.0687 88.8874 19.7166 89.464 19.3017C89.3197 20.1062 89.1042 20.8963 88.8201 21.6627C87.0264 21.5401 81.9211 21.3561 80.503 21.4557C79.8208 21.5017 79.4759 21.4557 79.5295 23.1958C78.9236 23.1468 78.314 23.1674 77.7128 23.2571C77.7206 22.9345 77.7052 22.6117 77.6668 22.2913C77.5748 21.6627 77.4138 21.5937 77.0229 21.5247C76.632 21.4557 74.202 21.5247 71.8487 21.5631C71.7188 20.6598 71.7292 19.7419 71.8793 18.8418L71.9483 18.8725ZM77.0382 22.184C77.1766 23.735 77.1044 25.2976 76.8236 26.8293C75.9651 27.8794 71.2584 28.255 70.6299 27.7031C69.9093 26.7373 68.5755 23.2725 68.2536 22.3373C69.6563 22.2913 76.9692 21.9387 76.9692 22.1533L77.0382 22.184ZM67.0807 36.9784C69.3994 37.7624 71.8808 37.9366 74.2863 37.4843C73.7881 38.8564 72.8835 42.0836 72.1936 43.7087C72.1553 43.816 60.5804 42.2676 60.4271 42.1756C65.7853 36.5184 66.1532 37.7679 67.0807 36.9784ZM54.1644 56.8627C52.7923 55.8738 52.7693 54.1951 52.9532 52.5087C53.011 51.6815 53.1523 50.8622 53.3748 50.0634C53.5117 49.419 53.7921 48.8138 54.195 48.2927C54.3943 48.0704 54.6933 47.9784 54.8389 48.2007C54.8389 48.2773 55.0306 48.2543 55.0459 49.1665C55.0459 51.0062 54.5706 51.6578 55.0459 51.7268C55.1302 51.7268 58.4647 50.3777 59.078 51.4662C59.3539 52.0641 58.549 52.3094 57.6598 52.6007C56.0041 53.1449 55.7971 53.0223 55.8354 53.3672C55.8738 53.7122 56.2954 53.3672 57.7595 53.5358C58.3804 53.6048 59.3463 53.9575 59.0013 54.4864C58.8173 54.862 57.2229 55.0153 56.7017 55.0766C55.9351 55.1686 55.7435 55.1149 55.7281 55.3986C55.7128 55.6822 56.0808 55.6515 56.786 55.7282C58.664 55.9352 58.6564 56.3338 58.687 56.4104C58.871 57.4912 55.3219 57.7059 54.1644 56.8627ZM82.7184 147.668C78.6301 148.255 74.4812 148.286 70.3846 147.76C62.1978 146.817 55.8891 143.851 53.7504 135.971C50.4696 123.913 53.8654 73.3435 54.8313 57.4146C56.0884 57.8209 58.0278 57.7979 58.8097 57.1233C58.9469 57.019 59.0451 56.8715 59.0882 56.7046C59.1313 56.5377 59.1169 56.3612 59.0473 56.2034C58.931 56.0231 58.7781 55.8692 58.5985 55.7517C58.4189 55.6341 58.2166 55.5556 58.0048 55.5212C57.4912 55.3832 57.8208 55.5212 58.7713 55.2683C59.9518 54.9463 60.0132 53.5205 58.3727 53.1219C57.9511 53.0223 57.9205 53.1219 58.1964 52.9916C58.848 52.7616 59.6759 52.4703 59.7295 51.7728C59.7414 51.5884 59.7045 51.4041 59.6224 51.2386C59.5403 51.073 59.4159 50.9321 59.2619 50.8299C58.3727 50.1707 56.4717 50.6843 55.4292 51.0446C55.4292 50.7303 55.7665 49.0592 55.4292 48.1547C55.6132 44.8815 55.6975 42.6968 55.6438 42.0223C82.7797 45.7247 81.8675 45.5407 81.7065 45.5407C81.7065 47.2885 81.5839 50.0327 81.4459 53.5052C80.526 52.892 78.786 51.8878 77.7971 52.386C77.626 52.467 77.4802 52.5931 77.3753 52.7507C77.2705 52.9083 77.2105 53.0914 77.2018 53.2805C77.1931 53.4696 77.2361 53.6575 77.3261 53.824C77.4162 53.9906 77.5498 54.1294 77.7128 54.2257C78.4793 54.931 78.763 54.8467 78.3184 54.816C76.9922 54.724 76.471 55.4446 76.6626 56.1268C76.7392 56.3042 76.8516 56.4638 76.9927 56.5957C77.1338 56.7276 77.3007 56.8289 77.4828 56.8933C78.4947 57.4069 78.3414 57.1233 77.4828 57.2306C76.4097 57.3609 76.103 58.3421 77.2605 59.078C77.844 59.436 78.4933 59.6733 79.17 59.776C79.8468 59.8787 80.5372 59.8447 81.2006 59.6759C81.2006 59.7526 80.1657 75.4132 79.7901 96.3093C79.2229 114.852 79.0236 131.571 80.434 133.487C81.0779 138.217 85.7999 144.985 91.0431 145.974C88.3263 146.794 85.5396 147.361 82.7184 147.668ZM143.82 144.035C140.662 142.118 138.017 140.877 134.116 140.969C126.128 141.245 123.154 147.867 113.25 146.25C105.899 145.07 104.511 142.325 97.6738 143.866C95.4201 144.372 93.7797 145.077 91.5873 145.775C86.988 144.955 81.9748 138.477 80.7867 133.717C80.7867 133.717 87.4786 129.946 89.326 129.118C97.0529 125.829 98.8696 128.964 106.435 131.341C112.951 133.395 115.09 132.268 120.755 129.693C123.997 128.213 126.511 127.439 130.083 127.999C131.89 128.272 133.639 128.845 135.258 129.693C144.824 145.438 144.226 144.288 143.82 144.035Z" fill="#0D1321"/>
</svg>
