<svg width="17" height="19" viewBox="0 0 17 19" fill="none" xmlns="http://www.w3.org/2000/svg">
<path d="M16 7.5625V4.75C16 3.71447 15.1606 2.875 14.125 2.875H2.875C1.83947 2.875 1 3.71447 1 4.75V7.5625M16 7.5625V16C16 17.0356 15.1606 17.875 14.125 17.875H2.875C1.83947 17.875 1 17.0356 1 16V7.5625M16 7.5625H1M4.75 1V4.75M12.25 1V4.75" stroke="black" stroke-linecap="round"/>
<path d="M5.21875 9.4375H3.34375C3.08487 9.4375 2.875 9.64737 2.875 9.90625V11.7812C2.875 12.0401 3.08487 12.25 3.34375 12.25H5.21875C5.47763 12.25 5.6875 12.0401 5.6875 11.7812V9.90625C5.6875 9.64737 5.47763 9.4375 5.21875 9.4375Z" fill="black"/>
<path d="M9.4375 9.4375H7.5625C7.30362 9.4375 7.09375 9.64737 7.09375 9.90625V11.7812C7.09375 12.0401 7.30362 12.25 7.5625 12.25H9.4375C9.69638 12.25 9.90625 12.0401 9.90625 11.7812V9.90625C9.90625 9.64737 9.69638 9.4375 9.4375 9.4375Z" fill="black"/>
<path d="M13.6562 9.4375H11.7812C11.5224 9.4375 11.3125 9.64737 11.3125 9.90625V11.7812C11.3125 12.0401 11.5224 12.25 11.7812 12.25H13.6562C13.9151 12.25 14.125 12.0401 14.125 11.7812V9.90625C14.125 9.64737 13.9151 9.4375 13.6562 9.4375Z" fill="black"/>
</svg>
