<svg width="265" height="265" viewBox="0 0 265 265" fill="none" xmlns="http://www.w3.org/2000/svg">
<path d="M202.301 112.068C201.744 112.068 201.744 113.102 202.301 113.102C203.626 113.102 222.083 112.797 223.633 112.492C223.775 112.471 223.904 112.4 223.997 112.292C224.09 112.184 224.141 112.046 224.141 111.903C224.141 111.76 224.09 111.622 223.997 111.514C223.904 111.406 223.775 111.334 223.633 111.313C218.771 110.677 207.654 111.962 202.301 112.068ZM209.694 139.125C209.085 139.125 209.191 140.145 209.774 140.172C214.094 140.317 220.825 140.092 225.237 139.893C226.045 139.893 226.138 138.568 225.237 138.568C220.295 138.595 214.65 138.661 209.694 139.125ZM210.264 93.4257C210.136 93.4313 210.014 93.4833 209.921 93.5721C209.828 93.6609 209.77 93.7804 209.759 93.9085C209.748 94.0365 209.783 94.1643 209.859 94.268C209.935 94.3718 210.046 94.4445 210.171 94.4725C212.543 94.764 220.242 95.0687 222.56 94.0882C222.679 94.0294 222.775 93.9335 222.835 93.8151C222.894 93.6967 222.913 93.5622 222.889 93.4319C222.865 93.3017 222.799 93.1827 222.702 93.0932C222.604 93.0036 222.48 92.9482 222.348 92.9355C219.274 92.75 214.345 93.7305 210.264 93.4257ZM195.133 119.025C206.316 118.866 218.983 118.084 230.272 117.05C230.974 117.05 230.908 115.725 230.179 115.725C219.076 116.004 206.104 116.732 195.067 117.872C194.914 117.881 194.771 117.95 194.669 118.064C194.567 118.179 194.514 118.329 194.523 118.481C194.532 118.634 194.601 118.777 194.716 118.879C194.83 118.981 194.98 119.034 195.133 119.025ZM211.165 60.0093C214.279 59.7708 217.393 59.5852 220.44 59.2142C221.315 59.1215 221.09 57.8892 220.228 57.8892C217.128 58.1277 214.027 58.5252 210.953 58.883C210.238 58.9625 210.436 60.0623 211.165 60.0093ZM192.986 87.6487C192.324 87.6487 192.297 88.775 192.986 88.828C200.477 89.1769 207.983 88.6522 215.352 87.2645C216.187 87.1187 216.055 85.7937 215.206 85.9395C207.868 87.191 200.43 87.7632 192.986 87.6487ZM217.644 66.356C218.797 66.6343 218.97 64.7527 217.91 64.9382C212.738 65.7767 207.496 66.1007 202.261 65.9055C201.559 65.9055 201.4 66.9257 202.115 67.0052C207.296 67.5254 212.525 67.3068 217.644 66.356ZM188.945 118.402C187.912 118.004 183.142 118.667 181.803 118.813C181.154 118.813 181.128 119.859 181.803 119.846L187.223 119.674C189.727 119.581 189.714 118.707 188.945 118.402ZM194.417 175.735C193.304 175.47 185.394 176.066 184.096 176.145C183.407 176.145 183.539 177.205 184.228 177.192C185.632 177.192 193.331 177.192 194.55 176.808C195.093 176.622 194.908 175.841 194.417 175.735ZM184.082 170.13C187.805 170.302 197.027 170.461 200.751 169.573C200.838 169.573 200.924 169.554 201.003 169.518C201.082 169.482 201.153 169.43 201.211 169.365C201.269 169.3 201.312 169.224 201.339 169.141C201.365 169.058 201.374 168.971 201.365 168.884C201.356 168.798 201.328 168.714 201.285 168.639C201.241 168.564 201.182 168.498 201.112 168.447C201.042 168.396 200.961 168.36 200.876 168.342C200.791 168.324 200.703 168.323 200.618 168.341C195.173 168.341 190.124 169.255 184.241 169.017C183.539 168.99 183.353 170.09 184.082 170.13ZM196.935 146.571C197.73 146.426 197.664 145.246 196.829 145.246C190.946 145.843 189.714 145.988 183.685 146.227C183.102 146.227 183.036 147.234 183.685 147.274C188.114 147.568 192.562 147.332 196.935 146.571ZM205.097 138.237C197.889 138.502 190.403 139.721 182.877 139.986C182.742 140.007 182.619 140.075 182.531 140.178C182.442 140.282 182.393 140.413 182.393 140.549C182.393 140.685 182.442 140.817 182.531 140.92C182.619 141.024 182.742 141.092 182.877 141.112C189.117 141.112 199.161 140.821 205.242 139.469C205.369 139.413 205.475 139.318 205.544 139.197C205.612 139.077 205.641 138.937 205.624 138.8C205.608 138.662 205.548 138.533 205.453 138.432C205.358 138.33 205.233 138.262 205.097 138.237ZM229.649 172.488C229.543 172.488 222.269 173.085 221.023 173.045C220.905 173.066 220.797 173.125 220.715 173.212C220.633 173.3 220.582 173.411 220.568 173.531C220.555 173.65 220.58 173.77 220.641 173.873C220.701 173.977 220.794 174.058 220.904 174.105C222.388 174.383 228.642 174.489 229.927 173.403C229.992 173.331 230.037 173.245 230.058 173.151C230.079 173.057 230.076 172.959 230.048 172.867C230.02 172.774 229.968 172.691 229.898 172.625C229.828 172.559 229.742 172.512 229.649 172.488ZM231.994 143.59C222.812 144.186 212.557 144.531 203.414 145.313C202.699 145.313 202.831 146.386 203.52 146.426C208.462 146.571 226.045 145.67 232.113 144.902C232.2 144.895 232.284 144.871 232.362 144.832C232.439 144.792 232.507 144.737 232.563 144.67C232.618 144.604 232.66 144.526 232.685 144.443C232.711 144.36 232.719 144.273 232.71 144.186C232.693 144.013 232.608 143.853 232.474 143.741C232.341 143.63 232.168 143.575 231.994 143.59ZM197.504 113.46C197.68 113.46 197.849 113.39 197.973 113.266C198.097 113.141 198.167 112.973 198.167 112.797C198.167 112.622 198.097 112.453 197.973 112.329C197.849 112.205 197.68 112.135 197.504 112.135C191.794 112.28 186.03 112.32 180.28 112.757C180.156 112.785 180.045 112.854 179.966 112.953C179.887 113.051 179.844 113.174 179.844 113.301C179.844 113.427 179.887 113.55 179.966 113.649C180.045 113.748 180.156 113.817 180.28 113.844C186.057 113.95 191.794 113.645 197.504 113.46ZM220.096 166.95C218.082 166.95 210.821 167.467 209.098 167.771C208.542 167.864 208.462 168.778 209.098 168.805C210.966 168.898 218.188 168.434 220.281 168.248C221.09 168.275 220.917 166.95 220.096 166.95ZM216.227 174.383L199.571 175.443C198.816 175.443 199.002 176.596 199.744 176.556C202.977 176.41 213.378 176 216.293 175.602C216.942 175.523 216.956 174.383 216.227 174.383ZM204.302 59.2142C199.413 58.6577 184.069 59.5852 178.862 60.1152C178.146 60.1815 178.093 61.2945 178.862 61.2282C187.421 60.6717 195.755 60.4862 204.315 60.5127C204.464 60.4808 204.598 60.3982 204.694 60.2789C204.789 60.1596 204.841 60.0109 204.839 59.8581C204.838 59.7052 204.783 59.5576 204.685 59.4403C204.587 59.323 204.452 59.2431 204.302 59.2142ZM205.719 94.976C206.554 94.8567 206.25 93.651 205.415 93.651C196.886 94.6226 188.306 95.0651 179.723 94.976C179.598 94.9959 179.485 95.0595 179.403 95.1554C179.321 95.2513 179.277 95.3733 179.277 95.4994C179.277 95.6255 179.321 95.7474 179.403 95.8433C179.485 95.9393 179.598 96.0029 179.723 96.0227C188.402 96.4407 197.102 96.0905 205.719 94.976ZM196.723 67.2305C196.81 67.2222 196.895 67.1967 196.972 67.1556C197.049 67.1144 197.117 67.0582 197.173 66.9905C197.228 66.9227 197.27 66.8446 197.295 66.7607C197.32 66.6769 197.328 66.5888 197.319 66.5017C197.311 66.4146 197.285 66.3299 197.244 66.2527C197.203 66.1754 197.147 66.1071 197.079 66.0516C197.011 65.9962 196.933 65.9547 196.849 65.9296C196.765 65.9046 196.677 65.8964 196.59 65.9055C190.747 66.6343 185.208 66.6607 179.445 67.1642C178.835 67.2305 178.769 68.2242 179.445 68.2507C185.222 68.3441 190.997 68.0031 196.723 67.2305ZM180.306 88.2052C179.644 88.2052 179.63 89.252 180.386 89.2785C182.764 89.5025 185.154 89.5644 187.54 89.464C187.648 89.416 187.739 89.3379 187.803 89.2391C187.867 89.1404 187.901 89.0252 187.901 88.9075C187.901 88.7898 187.867 88.6746 187.803 88.5758C187.739 88.4771 187.648 88.399 187.54 88.351C187.302 88.2185 181.525 88.2052 180.306 88.2052ZM163.77 95.8372C164.539 95.8372 167.387 91.1202 168.991 89.5037C169.574 88.9207 168.62 87.9402 168.023 88.4967C166.333 90.0206 164.869 91.7786 163.677 93.7172L160.325 90.63C159.636 89.994 158.748 91.0805 159.384 91.7297C160.02 92.379 162.79 95.8372 163.77 95.8372ZM154.707 74.2C160.14 74.518 165.784 74.412 171.746 74.4517C172.17 74.4517 172.422 73.2725 171.746 59.201C171.746 58.1807 171.654 57.4255 171.64 57.1473C171.644 57.1062 171.639 57.0649 171.625 57.0261C171.611 56.9873 171.589 56.9518 171.561 56.922C171.177 56.5112 168.673 56.5377 163.041 56.6835C153.568 56.9087 152.521 56.8425 152.521 57.3858C152.481 57.4918 153.077 74.041 154.707 74.2ZM155.078 73.2195C154.416 69.6817 153.939 62.2088 153.528 58.0218C157.384 58.247 166.168 57.8097 170.594 57.7037C170.594 57.7037 170.832 69.483 170.938 73.2857C165.744 73.1665 160.325 72.9677 155.025 73.1532L155.078 73.2195Z" fill="#0D1321"/>
<path d="M173.575 99.2955C174.688 98.8582 173.39 86.5092 173.204 83.263C173.195 83.1962 173.162 83.135 173.111 83.0907C172.316 82.4017 155.502 83.316 154.654 83.3822C153.806 83.4485 154.654 88.0595 154.8 91.1997C155.105 99.0173 155.462 99.693 155.86 99.746C158.748 100.157 170.925 100.329 173.575 99.2955ZM155.462 84.4687C161.2 84.0977 167.016 84.0712 172.184 84.0447C172.316 87.1452 172.528 95.877 172.793 98.2355C167.393 98.794 161.959 98.949 156.536 98.6992C156.761 96.725 155.661 86.708 155.462 84.4687ZM166.248 117.925L169.322 115.143C169.411 114.991 169.451 114.815 169.434 114.64C169.418 114.465 169.347 114.299 169.231 114.167C169.115 114.035 168.96 113.942 168.788 113.903C168.616 113.864 168.437 113.881 168.275 113.95C167.016 114.725 165.874 115.675 164.883 116.772L162.127 114.228C161.978 114.089 161.779 114.016 161.576 114.023C161.372 114.031 161.179 114.119 161.041 114.268C160.902 114.417 160.828 114.616 160.835 114.819C160.843 115.023 160.931 115.216 161.08 115.354L163.73 118.004C161.345 120.522 160.299 122.099 160.537 122.814C160.776 123.53 161.637 123.212 161.862 122.894C162.79 121.754 163.836 120.456 164.963 119.25C166.079 120.469 167.318 121.57 168.659 122.536C168.798 122.572 168.943 122.57 169.081 122.53C169.218 122.49 169.342 122.414 169.44 122.309C169.537 122.205 169.605 122.076 169.635 121.936C169.666 121.797 169.658 121.651 169.613 121.516C168.616 120.208 167.488 119.005 166.248 117.925ZM166.95 61.1223C164.833 62.9732 163.104 65.2248 161.862 67.7473C160.864 66.5524 159.715 65.4924 158.444 64.5937C157.662 64.0505 156.655 65.084 157.423 65.667C158.935 67.0028 160.347 68.4465 161.65 69.9865C161.995 70.3442 162.326 70.1587 162.617 69.7745C164.06 66.9633 165.84 64.3381 167.917 61.957C168.553 61.2547 167.639 60.473 166.95 61.1223ZM166.526 147.631C167.215 147.154 169.839 142.093 171.362 140.37C171.959 139.708 170.925 138.794 170.249 139.496C168.435 141.365 166.88 143.468 165.625 145.75L162.538 143.1C161.862 142.53 160.961 143.55 161.663 144.226C162.366 144.902 165.387 148.612 166.526 147.631ZM176.636 164.618C176.132 163.624 158.006 164.618 157.834 164.618C157.794 164.623 157.757 164.638 157.724 164.661C157.692 164.684 157.666 164.715 157.649 164.75C157.039 165.731 157.649 181.671 158.086 183.155C158.603 184.957 176.172 183.459 177.047 183.539C177.073 183.545 177.1 183.545 177.127 183.539C177.153 183.533 177.178 183.522 177.199 183.505C177.221 183.489 177.238 183.468 177.251 183.444C177.263 183.42 177.27 183.394 177.272 183.367C177.55 181.339 176.702 164.75 176.636 164.618ZM158.682 165.585C163.982 165.81 170.249 165.479 175.629 165.466C175.708 167.679 176.185 180.664 176.252 182.413C170.369 182.678 165.426 182.585 159.159 182.413C159.225 180.2 158.762 167.599 158.682 165.625V165.585Z" fill="#0D1321"/>
<path d="M165.082 174.171C166.023 174.171 170.832 174.502 171.217 174.29C171.318 174.233 171.404 174.153 171.47 174.056C171.535 173.96 171.577 173.849 171.592 173.734C171.607 173.618 171.596 173.501 171.558 173.39C171.521 173.28 171.458 173.18 171.376 173.098C170.673 172.356 166.235 172.515 165.493 172.661C164.486 172.846 164.3 173.231 164.327 173.522C164.362 173.699 164.455 173.859 164.592 173.977C164.729 174.094 164.901 174.163 165.082 174.171ZM166.871 135.283C162.525 135.362 157.953 135.521 157.198 135.574C156.907 135.574 156.602 135.826 156.562 138.582C156.562 141.881 157.132 152.335 158.457 152.428C161.107 152.627 174.807 152.68 176.569 152.547C176.848 152.547 177.073 152.547 176.569 145.657C176.291 142.106 175.669 135.654 175.669 135.654C175.616 135.389 175.589 135.15 166.871 135.283ZM174.675 136.449C174.993 141.391 175.165 146.452 175.695 151.421H158.841C158.324 146.638 157.98 141.709 157.609 136.647L174.675 136.449ZM160.325 127.823C165.705 127.823 174.701 127.094 174.781 127.054C175.629 126.617 174.781 114.652 174.503 109.538C174.503 108.624 169.825 108.61 165.943 108.756C164.247 108.756 155.82 109.207 155.847 110.412C156.297 128.154 156.191 127.293 156.522 127.478C157.762 127.802 159.047 127.918 160.325 127.823ZM157.529 126.498C157.225 121.277 157.119 115.739 156.907 110.598C162.409 110.109 167.933 109.923 173.456 110.041C173.456 111.857 173.814 123.927 174.039 125.941C172.078 126.074 159.583 126.167 157.569 126.511L157.529 126.498Z" fill="#0D1321"/>
<path d="M257.05 147.433C253.578 53 255.036 53.795 254.4 53.2385C253.499 52.3905 246.543 52.947 244.834 53.0398L244.118 38.5575C244.152 38.4702 244.165 38.3759 244.155 38.2826C244.144 38.1894 244.112 38.1 244.06 38.022C244.008 37.9439 243.938 37.8796 243.856 37.8344C243.774 37.7893 243.682 37.7646 243.588 37.7625C215.763 37.418 187.13 39.2598 158.417 41.2075C150.679 41.7508 142.636 42.2278 134.766 43.0625C134.692 43.0507 134.617 43.0553 134.545 43.0761C134.474 43.097 134.408 43.1334 134.352 43.1828C134.296 43.2323 134.252 43.2935 134.223 43.362C134.194 43.4306 134.18 43.5048 134.183 43.5793C135.64 78.9568 139.88 136.144 147.208 199.465C147.287 200.194 153.329 199.558 158.762 199.201C158.833 200.759 159.113 202.301 159.596 203.785C160.391 204.792 258.68 198.697 258.56 194.51C258.136 178.782 257.567 162.856 257.05 147.433ZM249.604 188.746C214.756 194.046 183.42 195.53 148.426 198.551C141.497 138.516 138.648 97.3345 135.177 43.99C145.936 43.354 185.725 39.697 243.204 38.9418C244.635 77.4595 249.961 184.506 249.564 188.746H249.604ZM83.2763 97.6525C82.3753 97.6525 82.3885 99.4015 82.8125 100.064C82.8615 100.161 82.9377 100.242 83.0319 100.296C83.1261 100.35 83.2341 100.375 83.3425 100.369C84.1508 100.276 84.111 97.7453 83.2763 97.6525ZM78.546 105.311C79.1158 105.457 80.6528 105.55 81.0105 105.02C81.514 104.278 80.1493 97.5465 79.977 97.0695C79.9416 96.9722 79.8727 96.8906 79.7827 96.8393C79.6927 96.788 79.5874 96.7703 79.4856 96.7894C79.3838 96.8085 79.292 96.8631 79.2267 96.9435C79.1614 97.0239 79.1268 97.1249 79.129 97.2285C79.129 98.4343 79.6723 102.529 79.8843 104.238L78.5593 104.317C78.4624 104.359 78.3796 104.427 78.321 104.514C78.2623 104.602 78.2303 104.705 78.2289 104.81C78.2275 104.915 78.2568 105.019 78.313 105.107C78.3693 105.196 78.4503 105.267 78.546 105.311ZM82.15 95.1748C82.5422 95.0673 82.9547 95.0571 83.3517 95.1448C83.7488 95.2325 84.1186 95.4156 84.429 95.6783C84.9458 96.142 85.9395 95.2543 84.5218 94.3533C83.5015 93.6643 81.1165 93.4258 81.3683 94.6448C81.4093 94.8145 81.5122 94.9628 81.6567 95.0608C81.8013 95.1588 81.9771 95.1994 82.15 95.1748Z" fill="#0D1321"/>
<path d="M120.999 143.338C112.479 134.938 97.149 125.067 83.369 123.106C83.5972 122.318 83.5972 121.482 83.369 120.694C84.418 119.817 85.3929 118.856 86.284 117.819C88.1788 115.593 88.139 113.42 85.436 114.52C88.086 108.663 88.086 95.9697 87.132 88.8412C91.5708 91.6105 99.057 88.9472 98.1428 83.5412C104.172 85.3565 108.094 73.3785 100.435 71.2187C101.508 62.1557 89.9013 60.844 86.3503 66.1307C84.3495 60.2875 75.154 63.3615 75.8165 67.946C71.6693 63.494 62.7123 65.0442 61.4668 70.596C57.717 67.1907 51.5293 68.635 52.0725 73.6567C46.1365 70.9007 42.9963 78.0027 47.6073 80.2817C44.6525 81.8717 44.7453 88.4172 49.2768 88.4172C49.2768 92.7897 51.9268 102.807 58.4855 108.292C59.1878 114.427 57.929 117.567 55.7428 123.251C34.1188 126.537 17.702 143.405 10.335 164.326C1.9345 188.176 5.92275 210.701 30.8195 215.445C30.7677 218.628 30.3948 221.797 29.7065 224.905C29.6941 225.023 29.7244 225.141 29.7918 225.237C29.8592 225.334 29.9592 225.403 30.0736 225.432C30.1879 225.461 30.3088 225.448 30.4142 225.395C30.5195 225.342 30.6023 225.253 30.6473 225.144C31.5342 222.057 32.0152 218.868 32.0783 215.657C38.0762 216.548 44.2037 215.613 49.6628 212.974C55.1219 210.334 59.6598 206.112 62.6858 200.857C66.5213 202.314 70.4363 203.552 74.412 204.567C86.92 208.104 103.231 211.616 118.68 207.429C118.376 214.835 117.952 220.771 117.289 226.668C117.289 227.251 118.097 227.423 118.19 226.84C118.707 223.739 119.992 210.132 119.913 207.071C129.744 204.05 136.316 197.226 137.933 188.362C140.755 173.336 134.395 156.469 120.999 143.338ZM64.7263 86.2707C65.0708 90.1397 64.7263 92.8957 63.547 94.6845C63.1098 95.3337 62.4473 96.0095 61.8775 96.0095C61.4403 95.5325 58.5783 92.5645 55.8753 94.3002C54.113 95.453 54.0335 97.6922 55.703 100.607C56.8962 102.378 57.7499 104.355 58.2205 106.437C53.1458 100.925 51.5955 95.7577 50.4295 88.351C51.7764 88.1081 53.0058 87.4282 53.9275 86.4165C56.2463 89.8615 61.9173 89.1725 64.7263 86.2707ZM56.5113 95.1747C58.3 94.075 59.9563 95.4 61.4668 96.725C62.3545 97.5067 63.812 96.407 64.501 95.4C66.303 92.909 66.144 88.775 65.9055 86.708C67.1916 87.9328 68.8995 88.616 70.6755 88.616C72.4515 88.616 74.1594 87.9328 75.4455 86.708C75.7105 90.524 83.7135 91.3985 85.8203 88.2317C86.7875 94.8567 87.2513 109.18 84.0448 115.182C81.3948 116.348 75.366 119.011 72.3715 117.832C69.801 116.812 68.5025 112.89 65.508 111.207C63.494 110.094 61.7715 111.353 63.176 113.605C66.727 119.25 66.409 121.396 63.6 127.2C61.1381 126.529 58.8358 125.371 56.8293 123.795C59.7443 119.621 60.5393 112.174 59.8105 107.219C59.1613 102.807 58.4855 103.072 56.7365 99.8122C55.9283 98.474 55.2128 95.9962 56.5113 95.1747ZM78.864 121.9C78.7583 121.949 78.6742 122.035 78.6276 122.142C78.5809 122.249 78.575 122.369 78.6109 122.48C78.6467 122.59 78.7219 122.684 78.8223 122.744C78.9226 122.803 79.0411 122.823 79.1555 122.801C80.2917 122.598 81.3688 122.145 82.309 121.476C82.3853 122.712 82.0599 123.939 81.3815 124.974C81.143 125.305 81.567 126.299 82.4283 125.067C82.362 128.724 80.4938 133.242 76.903 135.017C74.4694 134.578 72.1533 133.638 70.1009 132.258C68.0484 130.879 66.3041 129.089 64.978 127.001C68.953 120.191 65.455 115.076 64.289 112.956C63.6398 111.737 63.971 111.552 65.031 112.241C67.5353 113.831 69.7348 118.269 72.1595 118.866C76.7308 119.965 82.362 117.209 85.118 115.977C86.549 115.328 87.3838 114.891 85.6613 117.05C83.3558 119.899 82.044 120.495 78.864 121.9ZM22.79 178.451C22.7421 178.559 22.7346 178.68 22.7689 178.793C22.8032 178.906 22.8771 179.002 22.9769 179.065C23.0767 179.128 23.1958 179.153 23.3124 179.135C23.4289 179.117 23.5351 179.058 23.6115 178.968C35.2318 160.656 54.4575 147.949 64.3553 128.353C65.8923 131.771 72.4643 136.17 76.5188 136.17C76.5188 139.469 76.1875 143.391 75.843 147.154C71.868 146.24 61.1223 142.875 59.1878 138.476C58.9625 137.932 58.088 138.303 58.3 138.847C60.1153 143.762 71.3248 147.711 75.7238 148.546C74.7946 158.446 72.9539 168.24 70.225 177.802C68.2243 184.957 65.6538 193.609 61.9438 200.009C58.986 205.27 54.4604 209.478 48.9977 212.046C43.5349 214.613 37.4073 215.412 31.4688 214.332C7.00925 210.039 3.32575 187.978 11.6335 164.671C19.398 142.835 36.3978 127.465 56.0078 124.55C58.1394 126.122 60.4695 127.405 62.9375 128.366C53 147.539 34.0525 160.126 22.79 178.451ZM71.3645 178.358C84.2398 172.932 97.9195 169.66 111.857 168.672C115.832 168.407 119.807 168.421 123.782 168.421C124.365 168.421 124.378 167.467 123.782 167.467C121.078 167.279 118.367 167.231 115.659 167.321C115.01 162.021 105.457 146.558 102.211 142.278C102.127 142.2 102.019 142.154 101.905 142.149C101.79 142.143 101.678 142.179 101.588 142.25C101.498 142.321 101.437 142.421 101.415 142.534C101.393 142.646 101.412 142.762 101.469 142.861C107.974 151.977 113.235 163.584 114.281 167.374C102.635 167.811 84.6675 170.567 71.7355 176.901C72.9545 172.435 77.6715 154.018 77.7775 135.826C81.4213 134.196 84.0183 128.3 83.7135 124.338C97.4517 127.467 110.052 134.347 120.111 144.213C131.917 155.78 139.152 170.713 136.926 186.944C135.746 196.219 129.161 203.401 119.33 206.011C102.383 210.648 84.9458 206.62 68.211 201.426C66.591 200.881 64.9408 200.43 63.2688 200.075C66.6552 193.111 69.3662 185.839 71.3645 178.358Z" fill="#0D1321"/>
<path d="M70.7152 93.0548C71.0577 92.5487 71.5144 92.1304 72.0484 91.8334C72.5824 91.5365 73.1787 91.3694 73.7892 91.3455C74.7565 91.3455 74.7035 89.888 73.7892 90.0205C73.0022 90.1032 72.2445 90.3647 71.574 90.7849C70.9035 91.2052 70.3378 91.7731 69.9202 92.4453C69.5757 92.9885 70.3442 93.5848 70.7152 93.0548ZM73.8422 96.725C73.299 97.1623 73.3387 99.375 74.1602 99.375C74.3481 99.3554 74.5238 99.2727 74.6586 99.1403C74.7934 99.0079 74.8793 98.8338 74.9022 98.6463C75.207 97.4935 74.4252 96.3143 73.8422 96.725ZM72.6762 107.67C72.6515 107.566 72.5953 107.472 72.5154 107.402C72.4355 107.332 72.3358 107.288 72.2299 107.276C72.1241 107.264 72.0172 107.286 71.9239 107.337C71.8307 107.389 71.7556 107.468 71.709 107.564C71.5765 107.749 71.3247 108.319 71.8812 109.472C72.259 110.256 72.911 110.876 73.7141 111.212C74.5173 111.549 75.416 111.58 76.2405 111.3C76.3522 111.256 76.4437 111.172 76.4976 111.064C76.5516 110.957 76.5642 110.834 76.5332 110.718C76.5021 110.602 76.4295 110.501 76.3291 110.435C76.2288 110.369 76.1076 110.342 75.9887 110.359C74.1072 110.73 73.0207 109.538 72.6762 107.67Z" fill="#0D1321"/>
</svg>
