<svg width="207" height="207" viewBox="0 0 207 207" fill="none" xmlns="http://www.w3.org/2000/svg">
<path d="M153.988 73.0028C154.281 73.039 154.53 72.8424 154.569 72.5619L155.118 68.6289C154.695 68.7758 154.323 68.9094 154.018 69.0263L153.615 71.9129C150.668 71.5693 147.652 71.5993 144.72 71.9916C144.812 72.328 144.904 72.6633 144.996 72.9997C147.965 72.6136 151.017 72.6116 153.988 73.0028Z" fill="#0D1321"/>
<path d="M164.75 65.0145C164.542 65.1635 164.23 65.3312 163.839 65.5113C165.794 69.8655 166.961 74.1556 165.994 78.396C165.8 79.078 165.592 79.7311 165.231 80.1886C164.719 80.6988 164.095 81.1149 163.366 81.4264C158.72 83.5285 153.783 85.0997 148.692 86.0953C148.634 86.1067 148.584 86.1253 148.538 86.1492C148.624 86.4731 148.71 86.7971 148.795 87.121C149.323 87.1148 156.717 85.5706 163.784 82.3745C164.624 82.0143 165.358 81.5248 166.001 80.8779C166.52 80.2279 166.765 79.4672 166.996 78.6537C168.039 74.079 166.799 69.5488 164.75 65.0145Z" fill="#0D1321"/>
<path d="M165.337 64.5613C163.026 61.4708 163.337 62.1643 163.073 61.386C163.004 61.1127 163.06 60.8136 163.265 60.4959C163.973 58.963 164.426 57.4498 164.655 55.8425C165.011 51.6911 162.142 47.843 157.978 46.8918C155.766 46.3991 151.807 47.0388 149.438 48.7724C146.883 50.6437 146.907 53.2798 148.506 54.0644C145.194 56.6394 146.758 63.7799 152.617 64.8646C152.533 66.4057 152.543 67.9623 152.645 69.4993C152.677 69.9765 153.283 70.1555 153.571 69.7808C154.767 69.0905 163.992 66.5361 165.291 65.2372C165.473 65.055 165.491 64.7673 165.337 64.5613ZM153.631 68.6196C153.569 67.2347 153.585 65.8375 153.676 64.4578C153.694 64.1825 153.494 63.9414 153.22 63.9093C146.709 63.1434 146.469 54.3655 150.735 54.3655C153.143 54.3655 153.555 55.9056 152.637 56.6032C152.342 56.8278 152.107 56.8475 151.704 56.8475C151.059 56.8475 151 57.7986 151.64 57.8783C152.196 57.9487 153.037 57.7252 153.583 57.4426C156.175 55.4999 153.129 52.6619 149.748 53.1774C149.078 53.4009 148.416 52.9579 148.411 52.1455C148.705 48.8148 154.874 47.2582 157.751 47.8989C161.41 48.7362 163.936 52.1113 163.626 55.7235C163.415 57.2014 162.99 58.6194 162.364 59.9908C162.038 60.4814 161.93 61.0806 162.079 61.6726C162.44 62.7594 162.22 62.098 164.192 64.7569C162.332 65.8116 155.6 67.8278 153.63 68.6175L153.631 68.6196Z" fill="#0D1321"/>
<path d="M184.167 153.855C178.016 149.212 170.832 146.465 163.392 145.91C163.257 145.9 163.132 145.942 163.033 146.02C163.099 146.322 163.166 146.625 163.232 146.929C163.259 146.935 163.286 146.94 163.315 146.942C170.432 147.473 177.313 150.069 183.237 154.453L181.974 157.972C174.548 155.312 166.617 154.795 159.029 156.41L156.945 157.983C162.178 156.548 171.406 155.141 182.105 159.122C182.373 159.222 182.674 159.084 182.773 158.811L184.342 154.443C184.418 154.23 184.347 153.991 184.167 153.855Z" fill="#0D1321"/>
<path d="M201.664 145.826C199.279 141.816 194.974 145.142 191.874 148.655C190.847 149.786 189.172 152.172 187.638 152.078C185.6 151.738 183.019 149.835 181.258 148.481C181.007 148.288 180.629 148.364 180.48 148.66C178.541 152.539 177.285 155.516 175.447 160.283C175.083 160.813 175.41 161.767 176.253 161.84C186.027 165.116 189.074 169.593 194.201 169.593C197.808 169.593 199.744 166.435 199.153 163.474C198.921 162.205 197.898 161.345 198.334 160.298C198.639 159.585 199.16 158.96 199.734 158.269C201.513 155.807 202.039 151.865 202.17 150.362C202.511 148.998 202.348 147.451 201.665 145.827L201.664 145.826Z" fill="#0D1321"/>
<path d="M100.888 166.654C93.9407 145.433 87.6727 123.77 82.1355 101.865C81.7681 101.832 81.4027 101.791 81.0384 101.745C86.6046 123.799 92.9098 145.608 99.9013 166.965C100.676 169.51 103.115 171.262 105.778 171.296C105.674 170.969 105.565 170.619 105.446 170.242C103.38 170.066 101.491 168.632 100.888 166.653V166.654Z" fill="#0D1321"/>
<path d="M163.973 147.89C156.197 110.103 146.129 71.5291 134.052 33.2475C133.209 30.3537 130.151 28.472 127.088 28.9605C111.741 31.4156 94.7749 35.6228 76.4637 42.3172C73.7592 43.3315 69.2311 49.0292 69.8656 52.2004C72.1581 63.7283 74.6587 75.2302 77.359 86.6794C77.7202 86.7032 78.0804 86.7291 78.4416 86.7591C75.7144 75.2168 73.191 63.6206 70.8809 51.9986C70.5394 50.2898 72.2864 47.2583 74.2312 45.2256C73.6992 46.3868 73.5181 47.7241 73.7862 49.0634C81.2982 87.2828 91.4039 125.898 103.822 163.828C104.678 166.64 107.564 168.484 110.539 168.112C127.171 166.142 143.604 161.921 159.401 155.559C158.346 156.248 157.142 156.872 155.984 157.375C143.894 162.313 131.421 165.988 118.767 168.35C118.782 168.695 118.791 169.04 118.796 169.385C132.949 166.746 146.414 162.632 156.391 158.327C161.093 156.298 165.191 153.166 163.973 147.89ZM159.904 154.239C143.921 160.768 127.271 165.089 110.415 167.085C107.969 167.385 105.513 165.828 104.809 163.517C92.4017 125.617 82.3052 87.0427 74.8015 48.8626C74.2902 46.304 75.7464 43.8087 78.1725 42.9517C94.1953 37.2923 110.604 32.6462 127.252 29.9831C129.795 29.5743 132.356 31.1268 133.062 33.5487C145.132 71.8064 155.19 110.347 162.962 148.111C163.563 150.718 162.335 153.179 159.904 154.239Z" fill="#0D1321"/>
<path d="M106.176 160.922C94.4965 124.76 84.8058 87.6904 77.3714 50.746C76.7607 47.9391 78.3815 44.9707 81.0622 43.9958C95.4797 38.5889 110.477 34.6601 125.634 32.3199C128.414 31.9556 131.161 33.7472 132.032 36.4837C143.436 72.9561 153.127 109.984 160.836 146.543C161.355 149.529 159.777 152.358 157.394 153.399C143.063 159.663 127.858 163.412 112.439 165.088C109.589 165.334 107.031 163.609 106.176 160.922ZM126.365 33.3073C124.313 33.3073 103.435 36.7125 81.4224 44.9676C79.2126 45.7708 77.8816 48.2155 78.3857 50.5349C85.8128 87.4492 95.4942 124.479 107.163 160.606C107.875 162.843 109.999 164.262 112.339 164.058C127.643 162.395 142.666 158.489 156.981 152.451C159.065 151.454 160.232 149.106 159.821 146.738C152.122 110.231 142.441 73.2345 131.046 36.7953C130.388 34.7253 128.437 33.3073 126.365 33.3073Z" fill="#0D1321"/>
<path d="M107.402 186.156C103.759 186.156 100.743 185.542 95.3008 186.149C95.0358 186.176 94.7843 185.997 94.7356 185.73C94.3796 183.833 94.1633 182.14 94.0557 180.402C94.0412 180.179 94.1726 179.971 94.3796 179.888C98.2629 178.334 102.417 178.385 105.985 176.548C106.224 176.462 106.458 176.258 106.641 176.004C106.676 175.792 106.71 176.004 104.72 169.657C104.634 169.384 104.787 169.094 105.059 169.008C105.333 168.922 105.622 169.075 105.708 169.347C107.731 175.797 107.821 175.753 107.609 176.387C107.527 176.637 106.966 177.305 106.386 177.498C102.85 179.332 98.8425 179.319 95.1134 180.713C95.2159 182.134 95.3939 183.538 95.6661 185.068C98.3975 184.795 101.137 184.775 104.244 185.005C108.022 185.233 111.927 185.301 114.425 183.427C116.274 182.041 116.807 179.799 117.38 177.428C118.117 174.381 118.371 171.376 118.252 168.402C118.225 167.729 119.257 167.658 119.286 168.36C119.409 171.439 119.144 174.53 118.386 177.669C117.796 180.115 117.193 182.644 115.045 184.255C113.018 185.776 110.279 186.156 107.402 186.156Z" fill="#0D1321"/>
<path d="M99.863 189.635C99.4676 188.412 99.2337 178.962 99.2337 177.345C99.2337 177.033 98.9584 176.791 98.6479 176.832C95.4353 177.259 92.1554 176.964 88.9158 175.959C86.0333 174.962 82.6023 171.68 79.1765 173.88C77.6074 174.846 76.6759 176.702 76.8042 178.624C76.9129 179.819 77.7088 180.969 77.2576 181.831C76.6966 182.504 76.1677 183.139 75.4753 183.724C73.4198 186.054 72.36 189.826 72.0122 191.296C70.9358 194.525 71.9439 198.005 74.9671 198.005C77.5443 198.005 80.7072 195.479 82.0672 194.277C83.4665 192.777 85.2333 191.648 87.4254 190.837C88.892 190.438 89.632 190.52 99.5008 190.52C99.9655 190.52 100.191 189.956 99.864 189.634L99.863 189.635Z" fill="#0D1321"/>
<path d="M59.6212 102.498C59.084 97.7922 59.2827 93.3614 61.5193 89.5608C61.7884 89.1127 62.2625 88.6045 62.8193 88.1563C63.3937 87.7734 64.0696 87.5716 64.8396 87.5674C69.8066 86.9195 75.0044 86.8823 80.288 87.4567C80.5716 87.4857 80.8273 87.2828 80.8583 86.9982C80.8894 86.7135 80.6844 86.4589 80.3998 86.4279C75.0313 85.8452 69.7517 85.8835 64.7724 86.5366C63.8636 86.5366 62.989 86.7995 62.2076 87.3221C61.8102 87.6399 61.0774 88.2847 60.6282 89.0319C58.2187 93.1295 58.0262 97.8232 58.6069 102.745C58.8501 102.65 59.1968 102.57 59.6201 102.499L59.6212 102.498Z" fill="#0D1321"/>
<path d="M83.3951 101.435C79.2023 101.22 75.0851 100.145 71.1593 98.2382C71.0351 98.1771 70.8913 98.1698 70.7619 98.2154C70.5352 98.2951 70.5611 98.2278 68.7902 102.006C69.2322 101.998 69.6275 101.992 69.9577 101.985C70.3251 101.204 70.7309 100.344 71.18 99.3932C75.0882 101.221 79.1775 102.255 83.3423 102.468C83.6052 102.485 83.8712 102.263 83.8857 101.978C83.9002 101.692 83.6808 101.45 83.3951 101.435Z" fill="#0D1321"/>
<path d="M70.1243 106.496C70.6294 105.076 71.1303 103.608 71.4408 102.055C71.5081 101.715 71.2307 101.407 70.8881 101.437C69.7507 101.538 59.7453 101.405 58.1152 102.407C57.9279 102.522 57.8337 102.745 57.8813 102.96C58.1163 104.014 58.5644 104.909 58.9039 105.924C58.9184 105.967 58.9391 106.01 58.9639 106.048C59.1657 106.35 59.2496 106.965 58.6927 107.523C57.6277 108.588 56.6641 109.952 55.8889 111.508C54.3054 115.529 55.8123 119.991 59.4845 122.123C62.2718 123.633 65.7339 123.337 68.7954 122.511C69.494 122.371 70.2402 121.973 70.7784 121.431C71.6044 120.398 71.12 119.018 70.5383 118.824C70.2402 118.725 70.0012 118.61 69.6658 118.496C69.4847 118.348 69.316 118.391 69.0283 117.984C69.3491 118.162 69.7 118.266 70.1036 118.26C71.1821 118.126 72.2119 117.453 72.7108 116.578C75.0696 113.041 73.7986 108.328 70.1264 106.495L70.1243 106.496ZM71.8279 116.035C71.4719 116.658 70.7267 117.14 70.0374 117.23C69.4764 117.23 68.8678 116.662 69.0655 116.137C69.2798 115.565 68.4901 115.157 68.1506 115.669C67.3174 116.918 67.72 118.609 69.0024 119.32C69.1535 119.407 69.2135 119.462 69.3646 119.488C69.6192 119.576 69.8149 119.666 70.0736 119.759C70.263 120.03 70.2278 120.464 70.0094 120.742C69.6565 121.094 69.0872 121.397 68.5604 121.504C64.9949 122.464 62.1082 122.366 59.9927 121.22C56.779 119.354 55.4594 115.429 56.8349 111.929C58.6638 108.272 60.1386 108.245 60.1386 106.769C60.1386 106.416 60.1386 105.981 59.8675 105.536C59.5849 104.704 59.2237 103.92 59.0012 103.152C60.948 102.578 68.2862 102.544 70.2868 102.496C69.9515 103.909 69.465 105.272 68.9931 106.596C68.8999 106.855 69.0272 107.142 69.2818 107.248C72.6621 108.646 73.96 112.823 71.831 116.035H71.8279Z" fill="#0D1321"/>
<path d="M135.989 35.9374C135.282 35.6548 134.522 35.5637 133.967 35.6776C118.492 36.783 103.699 41.0627 92.6149 44.8891C89.7304 45.8848 84.662 47.2893 77.8713 50.8548C75.436 52.073 71.6551 54.5415 70.349 56.2896C63.8761 56.9292 58.7249 48.7952 55.6333 43.8085C51.7986 37.6244 51.2894 37.5478 51.394 37.5478C45.8019 30.7003 37.9255 26.2963 29.216 25.1506C28.6395 25.0813 28.3973 25.8668 28.9169 26.1266C29.6352 26.4858 30.0378 27.2806 29.8898 27.9637C29.5627 28.9449 29.0473 29.7087 28.3549 30.2066C26.2766 32.0665 23.716 33.1056 20.9505 33.2122C20.3057 33.2371 20.2839 34.1924 20.9277 34.2452C26.2704 34.6902 31.4454 35.5648 36.7477 36.9186C41.7892 38.234 46.014 41.3722 48.6398 45.7481C49.9698 48.0769 50.8847 50.8072 52.607 52.8731C55.5505 56.5308 61.4873 58.9806 66.8237 59.0945C55.7203 62.2336 47.2943 55.4978 36.993 53.165C25.551 50.5599 13.5254 53.7891 4.82411 61.8031C4.40908 62.186 4.82411 62.8639 5.35403 62.6694C7.16425 62.0007 8.9548 64.3181 9.1411 66.2681C9.36362 68.4912 8.67535 70.9452 9.38432 73.3112C9.5789 73.9591 10.5736 73.6828 10.3759 73.0142C9.81074 71.1294 14.4155 66.9895 15.5188 65.7909C17.9221 63.2831 21.1099 61.3953 24.7717 60.5621C34.2575 58.4052 41.4321 62.539 46.9321 63.9145C55.5122 66.3343 63.6411 65.2589 70.0975 60.9047C70.6563 60.8747 71.3581 60.6832 72.2099 60.0953C75.2714 57.9808 79.1444 56.9717 82.8963 55.9926C88.8123 54.4504 102.597 49.7236 131.743 44.2091C132.981 43.9752 136.407 44.2495 137.71 43.0758C139.187 41.7479 137.835 36.9848 135.989 35.9374Z" fill="#0D1321"/>
<path d="M155.021 9.99196C154.452 9.27988 153.469 8.88037 152.68 9.01492C150.784 9.13291 148.997 9.94125 147.646 11.2888C145.626 13.2233 143.685 16.1658 141.715 20.2861C141.552 20.6297 141.802 21.0272 142.182 21.0272C143.176 21.0272 142.443 18.5473 148.673 15.7145C150.448 14.8979 157.01 13.3495 155.021 9.99196ZM148.241 14.7737C147.193 15.2508 145.935 15.8863 144.761 16.7557C145.957 14.7582 147.162 13.2108 148.365 12.034C149.569 10.8573 151.115 10.1503 152.798 10.0427C153.274 9.96298 153.87 10.2114 154.169 10.5768C155.352 12.5971 149.961 13.9819 148.241 14.7737Z" fill="#0D1321"/>
<path d="M173.052 19.0708C170.605 17.4396 166.079 17.3558 163.365 17.8743C159.867 18.5419 156.708 19.727 153.693 21.4016C153.16 21.6976 153.495 22.5143 154.083 22.3528C161.654 20.258 168.075 24.3586 171.401 24.3586C174.034 24.3586 176.686 21.4917 173.052 19.0708ZM172.902 22.8962C171.624 23.8152 169.519 22.9903 168.14 22.5826C164.529 21.5144 161.175 20.5074 157.434 20.7382C159.376 19.933 161.402 19.3223 163.559 18.8897C166.396 18.4177 170.394 18.544 172.477 19.9309C173.325 20.497 173.795 21.1025 173.799 21.6355C173.802 22.0589 173.498 22.4666 172.901 22.8951L172.902 22.8962Z" fill="#0D1321"/>
<path d="M103.33 68.013C94.2492 68.013 98.2412 51.8297 105.092 51.6951C106.224 51.5678 107.5 52.0729 108.289 52.9889C112.027 57.0699 109.761 68.013 103.33 68.013ZM105.418 52.7125C99.7647 52.7125 96.4289 65.0435 101.785 66.7306C108.195 68.7333 111.074 57.8016 107.51 53.6699C107.001 53.08 106.189 52.7125 105.418 52.7125Z" fill="#0D1321"/>
<path d="M118.642 63.3574C113.584 62.0637 110.416 56.8514 112.353 52.1287C113.621 48.9833 115.925 49.1251 117.186 49.4895C120.96 50.5814 124.832 56.1497 124.206 59.5869C123.275 64.8095 118.529 63.3574 118.642 63.3574ZM118.897 62.3545C121.114 62.9144 122.729 61.9747 123.188 59.4037C123.994 54.975 115.809 46.3172 113.312 52.5189C111.612 56.662 114.467 61.2357 118.897 62.3545Z" fill="#0D1321"/>
<path d="M109.833 57.0271C109.774 55.2106 107.142 53.3611 105.296 55.2075C104.221 56.2808 104.098 58.1469 105.05 59.5028C106.893 61.5748 109.9 59.1146 109.833 57.0271Z" fill="#0D1321"/>
<path d="M121.415 54.1915C121.338 52.67 118.907 50.4406 116.968 52.3864C115.792 53.4328 115.609 55.3072 116.59 56.7024C118.441 58.7848 121.512 56.1031 121.415 54.1915Z" fill="#0D1321"/>
<path d="M122.245 67.275C121.986 67.1518 121.678 67.2615 121.555 67.5193C117.571 75.8862 101.823 75.465 96.1008 66.5816C96.255 66.5929 96.4092 66.6281 96.5593 66.6871C96.8232 66.7917 97.1254 66.6612 97.23 66.3953C97.6771 65.2568 94.2647 64.9607 93.5485 67.3288C93.4481 67.6611 93.6965 67.9964 94.0442 67.9964C94.2668 67.9964 94.4717 67.8515 94.54 67.629C94.6301 67.3319 94.8164 67.0711 95.0679 66.8838C101.051 76.6531 118.091 77.1996 122.489 67.9653C122.612 67.7066 122.503 67.3982 122.245 67.275Z" fill="#0D1321"/>
<path d="M125.042 139.886C113.268 139.886 103.688 130.106 103.688 118.084C103.688 106.063 113.268 96.2818 125.042 96.2818C136.817 96.2818 146.397 106.063 146.397 118.084C146.397 130.106 136.818 139.886 125.042 139.886ZM125.042 97.3168C113.839 97.3168 104.723 106.633 104.723 118.084C104.723 129.535 113.839 138.851 125.042 138.851C136.246 138.851 145.362 129.535 145.362 118.084C145.362 106.633 136.246 97.3168 125.042 97.3168Z" fill="#0D1321"/>
<path d="M148.398 144.624C147.445 140.692 147.505 140.886 147.443 140.783C146.627 139.425 145.498 139.61 145.316 139.648C136.979 141.386 129.853 143.195 123.534 145.151C122.617 145.435 122.136 146.253 122.3 147.22L123.188 150.881C123.336 151.772 124.204 152.375 125.257 152.199C131.799 150.891 139.006 149.246 147.165 146.694C148.081 146.407 148.563 145.592 148.399 144.625L148.398 144.624ZM125.068 151.18C124.675 151.249 124.275 151.097 124.2 150.673L123.312 147.012C123.241 146.587 123.433 146.265 123.84 146.139C128.867 144.58 134.461 143.255 140.728 141.773L142.109 147.056C135.887 148.781 130.273 150.139 125.068 151.18ZM146.854 145.705C145.587 146.102 144.331 146.436 143.105 146.78L141.735 141.537C142.972 141.247 144.236 140.956 145.527 140.662C146.013 140.585 146.372 141.036 146.515 141.253L147.383 144.832C147.454 145.257 147.261 145.578 146.852 145.706L146.854 145.705Z" fill="#0D1321"/>
<path d="M116.976 153.553C115.455 153.553 114.217 152.265 114.217 150.683C114.217 149.1 115.454 147.812 116.976 147.812C118.497 147.812 119.734 149.1 119.734 150.683C119.734 152.265 118.497 153.553 116.976 153.553ZM116.976 148.848C116.026 148.848 115.252 149.67 115.252 150.683C115.252 151.695 116.026 152.518 116.976 152.518C117.926 152.518 118.699 151.695 118.699 150.683C118.699 149.67 117.926 148.848 116.976 148.848Z" fill="#0D1321"/>
<path d="M127.619 104.684C125.418 104.684 123.629 106.474 123.629 108.674C123.629 110.874 125.418 112.664 127.619 112.664C129.819 112.664 131.609 110.874 131.609 108.674C131.609 106.474 129.819 104.684 127.619 104.684Z" fill="#0D1321"/>
<path d="M119.889 112.595C117.648 112.595 115.52 113.827 114.512 115.955C114.064 117.188 114.979 118.789 116.417 117.971C117.552 117.326 117.868 116.219 119.441 116.403C120.67 116.547 121.457 117.523 121.345 118.756C121.345 118.979 121.234 119.204 121.122 119.54C119.102 125.601 115.642 125.024 114.289 125.926C113.729 126.598 113.841 127.607 114.512 128.055L114.624 128.167C115.409 128.615 116.187 128.818 117.089 128.615C118.203 128.365 119.329 128.055 120.226 127.383C121.122 126.823 122.018 125.843 123.138 125.815C132.045 125.592 130.286 128.973 132.437 129.512C132.885 129.623 133.445 129.4 133.781 129.063C134.677 127.944 133.669 125.815 132.885 125.03C131.765 124.022 128.783 123.696 129.188 121.893C129.313 121.336 129.411 120.885 129.636 120.437C130.652 118.403 133.127 120.522 135.574 116.852C136.022 116.18 136.134 115.507 136.134 114.723C136.022 113.826 135.137 112.505 134.117 113.042C133.674 113.276 133.446 113.826 133.109 114.274C130.072 117.747 125.045 112.282 119.89 112.594L119.889 112.595Z" fill="#0D1321"/>
<path d="M101.404 90.6381C100.956 89.7418 99.5142 89.7593 98.828 90.3017C98.3892 90.6494 98.1563 91.198 98.0435 91.7579C97.5954 91.4216 97.0354 91.0862 96.4755 90.9734C95.4674 90.8616 94.5711 91.5333 94.4593 92.4296C94.3475 92.9896 94.5783 93.4326 94.9075 93.8859C95.7096 94.9933 97.5964 95.5667 98.828 96.0149C99.4118 96.3068 100.147 95.9973 100.509 95.4549C101.149 93.5371 102.009 92.0477 101.404 90.6381Z" fill="#0D1321"/>
<path d="M122.242 84.7705C122.354 85.1069 122.578 85.3305 122.69 85.6668C123.026 86.115 123.698 86.3386 124.258 86.3386C124.706 86.3386 125.154 86.115 125.714 86.115C126.722 86.115 127.507 86.7867 127.843 87.683C128.139 87.979 127.587 88.2223 127.182 88.3289C125.162 88.8598 123.142 89.3804 121.122 89.6992C120.786 88.243 120.562 86.7867 120.337 85.3305C120.226 85.2187 120.337 84.9941 120.449 84.9941C120.608 84.9941 120.334 85.0458 122.017 84.6577L122.241 84.7695L122.242 84.7705Z" fill="#0D1321"/>
<path d="M121.925 91.6783C121.323 91.6783 121.211 90.8151 121.793 90.6609L122.918 90.3608C123.195 90.2873 123.478 90.4508 123.551 90.7272C123.625 91.0035 123.461 91.2871 123.185 91.3606C122.13 91.6411 122.031 91.6783 121.925 91.6783Z" fill="#0D1321"/>
<path d="M125.345 90.8264C124.735 90.8264 124.632 89.9477 125.225 89.8059L127.744 89.2015C128.02 89.1342 128.301 89.306 128.368 89.5834C128.434 89.8618 128.263 90.1402 127.985 90.2075C125.389 90.8295 125.448 90.8264 125.345 90.8264Z" fill="#0D1321"/>
<path d="M105.213 91.2674C104.603 91.2674 104.5 90.3887 105.093 90.2469L110.694 88.9025C110.972 88.8362 111.252 89.007 111.318 89.2844C111.385 89.5618 111.214 89.8412 110.935 89.9085C105.497 91.2116 105.319 91.2674 105.213 91.2674Z" fill="#0D1321"/>
<path d="M105.773 94.4033C105.162 94.4033 105.06 93.5246 105.653 93.3828L113.159 91.5902C113.437 91.5249 113.717 91.6957 113.783 91.9731C113.849 92.2515 113.677 92.5299 113.4 92.5972C105.3 94.5327 105.878 94.4033 105.773 94.4033Z" fill="#0D1321"/>
<path d="M131.315 84.5459C130.703 84.5459 130.601 83.6652 131.197 83.5244L138.814 81.7318C139.093 81.6666 139.371 81.8384 139.437 82.1168C139.502 82.3952 139.331 82.6736 139.052 82.7388C130.906 84.6598 131.42 84.5449 131.316 84.5449L131.315 84.5459Z" fill="#0D1321"/>
<path d="M131.987 87.6831C131.39 87.6831 131.271 86.8324 131.846 86.6678L136.551 85.3233C136.824 85.2457 137.112 85.4041 137.19 85.6783C137.269 85.9526 137.11 86.2393 136.834 86.318C131.764 87.767 132.091 87.6821 131.986 87.6821L131.987 87.6831Z" fill="#0D1321"/>
<path d="M86.7537 89.2863C86.1472 89.2863 86.0396 88.4149 86.6285 88.2669L142.35 74.2292C142.627 74.1619 142.909 74.3275 142.977 74.6059C143.046 74.8833 142.878 75.1648 142.601 75.2341L86.7527 89.2874L86.7537 89.2863Z" fill="#0D1321"/>
</svg>
