<svg width="207" height="207" viewBox="0 0 207 207" fill="none" xmlns="http://www.w3.org/2000/svg">
<path d="M160.425 10.0084C155.985 9.83249 152.145 14.1484 152.787 18.3609C153.09 19.829 153.841 21.1669 154.937 22.1902C156.032 23.2134 157.418 23.8716 158.904 24.0741C163.044 24.6123 167.556 21.1554 167.401 16.8291C167.272 15.0364 166.491 13.3531 165.206 12.0966C163.921 10.8401 162.22 10.0973 160.425 10.0084ZM163.199 20.9898L160.094 18.9198L156.047 21.4452L157.424 17.626L155.167 16.1667L158.189 15.6699L160.094 12.6166L161.243 15.0282L164.762 14.8729L162.164 17.388L163.199 20.9898ZM117.09 65.0704C117.783 64.8945 118.632 64.2735 118.539 63.4869C118.445 62.7003 117.597 62.2966 116.914 62.2656C115.817 62.2656 114.719 63.3006 114.906 64.1182C115.092 64.9359 116.189 65.2878 117.09 65.0704ZM86.5777 178.537C87.5966 177.689 88.5043 176.715 89.2791 175.639C90.6143 173.766 92.5704 171.044 91.8356 168.084C91.3698 166.18 89.6517 163.696 87.1884 163.613C84.7251 163.53 82.7379 166.138 82.148 168.043C81.3303 170.64 82.5516 173 83.3693 174.563C84.1619 176.089 85.253 177.441 86.5777 178.537ZM84.87 169.015C84.87 168.606 84.9914 168.206 85.2189 167.865C85.4463 167.525 85.7696 167.26 86.1478 167.103C86.5261 166.946 86.9423 166.905 87.3438 166.985C87.7454 167.065 88.1142 167.262 88.4037 167.552C88.6932 167.841 88.8904 168.21 88.9702 168.612C89.0501 169.013 89.0091 169.429 88.8524 169.808C88.6958 170.186 88.4304 170.509 88.09 170.737C87.7496 170.964 87.3494 171.085 86.94 171.085C86.391 171.085 85.8645 170.867 85.4763 170.479C85.0881 170.091 84.87 169.564 84.87 169.015ZM157.775 178.248C157.9 174.304 155.705 171.644 154.132 171.644C152.559 171.644 150.365 174.304 150.479 178.248H157.775ZM158.728 176.343L161.243 176.395C161.46 175.485 161.334 174.527 160.891 173.704C160.021 172.183 158.624 171.489 157.682 172.948C158.362 173.95 158.726 175.133 158.728 176.343ZM146.97 176.395L149.485 176.343C149.488 175.134 149.848 173.953 150.52 172.948C149.568 171.489 148.171 172.193 147.312 173.704C146.87 174.528 146.749 175.487 146.97 176.395ZM154.132 170.837C154.618 170.881 155.105 170.775 155.528 170.534C155.952 170.293 156.292 169.928 156.502 169.489C156.713 169.05 156.784 168.556 156.707 168.075C156.629 167.594 156.406 167.148 156.068 166.797C155.73 166.446 155.293 166.207 154.815 166.111C154.337 166.016 153.841 166.069 153.394 166.263C152.947 166.457 152.57 166.783 152.314 167.197C152.057 167.611 151.933 168.094 151.959 168.581C151.975 169.16 152.207 169.712 152.609 170.129C153.011 170.546 153.554 170.799 154.132 170.837ZM148.729 171.499C149.156 171.46 149.552 171.262 149.838 170.943C150.124 170.624 150.279 170.209 150.272 169.781C150.242 169.48 150.124 169.194 149.935 168.957C149.745 168.721 149.49 168.545 149.202 168.451C148.914 168.357 148.605 168.349 148.312 168.427C148.02 168.505 147.756 168.667 147.553 168.893C147.351 169.118 147.219 169.398 147.172 169.697C147.126 169.997 147.167 170.303 147.292 170.579C147.417 170.856 147.619 171.09 147.874 171.253C148.129 171.416 148.426 171.502 148.729 171.499ZM159.535 171.499C159.961 171.46 160.357 171.262 160.643 170.943C160.929 170.624 161.084 170.209 161.077 169.781C161.047 169.48 160.93 169.194 160.74 168.957C160.55 168.721 160.296 168.545 160.008 168.451C159.72 168.357 159.41 168.349 159.118 168.427C158.825 168.505 158.561 168.667 158.359 168.893C158.156 169.118 158.024 169.398 157.978 169.697C157.931 169.997 157.973 170.303 158.097 170.579C158.222 170.856 158.424 171.09 158.679 171.253C158.935 171.416 159.232 171.502 159.535 171.499ZM91.5044 68.0512C90.7765 68.1072 90.0502 67.9256 89.4344 67.5337C89.7091 66.6249 90.1631 65.7803 90.7695 65.0497C90.8147 64.983 90.8349 64.9023 90.8264 64.8221C90.8179 64.7419 90.7812 64.6672 90.7229 64.6114C90.6647 64.5557 90.5885 64.5223 90.508 64.5173C90.4275 64.5122 90.3478 64.5359 90.2831 64.584C89.9208 64.9566 88.3476 67.2336 88.6477 67.9684C88.9479 68.7033 91.3905 69.1069 91.9391 68.5791C92.009 68.5214 92.0533 68.4384 92.062 68.3481C92.0707 68.2578 92.0433 68.1678 91.9856 68.0978C91.928 68.0278 91.8449 67.9836 91.7546 67.9748C91.6644 67.9661 91.5743 67.9936 91.5044 68.0512ZM97.5901 73.2883C99.8596 73.2143 102.042 72.396 103.8 70.9596C103.715 71.6695 103.481 72.3534 103.113 72.9668C102.746 73.5803 102.253 74.1095 101.668 74.52C101.599 74.5612 101.55 74.6279 101.531 74.7056C101.511 74.7832 101.523 74.8654 101.565 74.934C101.606 75.0026 101.672 75.0521 101.75 75.0715C101.828 75.0909 101.91 75.0787 101.979 75.0375C102.89 74.5347 103.637 73.7782 104.127 72.8596C104.618 71.9411 104.831 70.9 104.742 69.8625C104.737 69.7725 104.706 69.6859 104.652 69.6132C104.599 69.5405 104.526 69.485 104.441 69.4532C104.357 69.4214 104.265 69.4148 104.177 69.4342C104.089 69.4535 104.008 69.4981 103.945 69.5623C102.284 71.3485 100.003 72.4332 97.5694 72.5949C97.467 72.6003 97.3706 72.6455 97.301 72.7209C97.2314 72.7963 97.194 72.8959 97.1969 72.9985C97.2217 73.0832 97.2737 73.1574 97.3447 73.2097C97.4157 73.262 97.5019 73.2897 97.5901 73.2883ZM98.0766 50.3527C97.9613 50.3527 97.8507 50.3985 97.7692 50.4801C97.6877 50.5616 97.6419 50.6721 97.6419 50.7874C97.6419 50.9027 97.6877 51.0133 97.7692 51.0948C97.8507 51.1763 97.9613 51.2221 98.0766 51.2221C98.9123 51.263 99.7282 51.4906 100.464 51.8882C101.2 52.2858 101.838 52.8434 102.33 53.5198C102.381 53.5806 102.452 53.621 102.531 53.6338C102.609 53.6466 102.689 53.6309 102.757 53.5895C102.825 53.5482 102.875 53.484 102.899 53.4085C102.924 53.333 102.92 53.2514 102.889 53.1783C102.405 52.3269 101.706 51.6177 100.861 51.1218C100.016 50.6259 99.0561 50.3607 98.0766 50.3527ZM85.7083 51.0565C85.0198 51.6383 84.1347 51.9346 83.2347 51.8845C83.1419 51.88 83.0507 51.9103 82.9791 51.9696C82.9074 52.0288 82.8606 52.1127 82.8476 52.2047C82.8346 52.2968 82.8565 52.3903 82.909 52.467C82.9615 52.5438 83.0407 52.5981 83.1312 52.6194C83.6881 52.7362 84.2643 52.7232 84.8154 52.5814C85.3664 52.4396 85.8773 52.1728 86.3086 51.8017C86.7226 51.4084 86.1741 50.715 85.7083 51.0565ZM84.7561 61.6446C84.7561 61.1788 84.5078 59.2744 84.5181 58.8294C84.5181 58.7333 84.4799 58.6412 84.412 58.5732C84.3441 58.5053 84.2519 58.4671 84.1558 58.4671C84.0615 58.4643 83.9697 58.4984 83.9001 58.5622C83.8305 58.626 83.7886 58.7144 83.7832 58.8087C83.727 59.7911 83.727 60.776 83.7832 61.7584C83.7983 61.8875 83.8641 62.0052 83.966 62.0857C84.0164 62.1256 84.0743 62.1552 84.1361 62.1727C84.198 62.1903 84.2627 62.1954 84.3266 62.188C84.3905 62.1805 84.4523 62.1605 84.5084 62.1292C84.5646 62.0978 84.614 62.0557 84.6539 62.0052C84.6938 61.9548 84.7234 61.897 84.7409 61.8351C84.7584 61.7732 84.7636 61.7085 84.7561 61.6446ZM99.36 61.3962C99.36 61.0546 99.153 59.6884 99.1633 59.3262C99.1633 59.2301 99.1252 59.138 99.0573 59.07C98.9893 59.0021 98.8972 58.9639 98.8011 58.9639C98.705 58.9639 98.6129 59.0021 98.5449 59.07C98.477 59.138 98.4389 59.2301 98.4389 59.3262C98.4389 59.6988 98.3354 61.1374 98.3768 61.51C98.3787 61.5789 98.3949 61.6466 98.4244 61.7089C98.4539 61.7711 98.496 61.8266 98.5481 61.8717C98.6002 61.9168 98.6611 61.9505 98.7269 61.9708C98.7927 61.9912 98.8621 61.9975 98.9305 61.9896C98.9989 61.9817 99.065 61.9596 99.1244 61.9248C99.1839 61.89 99.2354 61.8432 99.2758 61.7874C99.3162 61.7316 99.3445 61.668 99.359 61.6006C99.3735 61.5333 99.3739 61.4637 99.36 61.3962Z" fill="#0D1321"/>
<path d="M51.0255 106.605C51.0144 106.639 51.0144 106.675 51.0255 106.709C55.5491 116.899 62.9211 125.566 72.2544 131.666C81.5878 137.766 92.4848 141.039 103.635 141.091C135.968 141.091 162.464 113.881 161.108 80.5748C160.62 68.6251 156.298 57.1501 148.781 47.848C142.927 40.6523 135.425 34.9722 126.912 31.2881C127.021 30.9149 127.104 30.5344 127.16 30.1496C127.74 26.3718 126.125 23.8464 123.258 21.29C121.817 20.0483 120.304 18.8939 118.725 17.8331C117.158 16.6589 115.347 15.8524 113.426 15.4733C112.403 15.267 111.346 15.3047 110.341 15.5834C109.336 15.8622 108.41 16.3741 107.64 17.0775C107.35 17.3777 107.102 17.8538 106.791 18.0401C106.339 18.1771 105.861 18.209 105.394 18.1332C102.228 18.1327 99.0957 18.7798 96.1891 20.0346C93.2825 21.2895 90.6633 23.1255 88.4925 25.43C87.192 25.6487 85.9642 26.1804 84.9148 26.9791C83.8655 27.7779 83.026 28.8197 82.4688 30.015C51.5223 42.8594 38.3571 76.59 51.0255 106.605ZM85.9775 115.278C84.7708 111.3 84.2459 107.146 84.4249 102.993C84.5802 99.536 84.8286 93.7607 88.565 91.3388C89.7302 90.5299 91.0014 89.8856 92.3427 89.424C91.1525 96.017 93.4605 102.651 96.255 108.675C94.4852 109.306 87.6024 114.254 85.9775 115.299V115.278ZM94.2575 89.4033C94.1643 88.3683 93.6882 85.2633 93.6157 84.7769C93.6016 84.5612 93.5323 84.3528 93.4145 84.1715C93.2967 83.9903 93.1343 83.8424 92.943 83.7419C92.6015 83.5659 91.08 83.0484 90.6764 82.8414C85.905 80.5023 82.3446 74.934 82.8 66.8093C84.0589 66.9925 85.3413 66.9328 86.5778 66.6333C88.2027 66.1468 89.217 64.6151 89.5793 62.0897C89.8134 61.8756 90.0906 61.714 90.3923 61.6158C90.6939 61.5177 91.0131 61.4851 91.3284 61.5204C91.9712 61.5754 92.5936 61.7734 93.15 62.1C93.2678 62.9217 93.5763 63.7044 94.0508 64.3855C94.5252 65.0667 95.1525 65.6273 95.8824 66.0227C97.5212 66.8144 99.4015 66.9466 101.135 66.3919C102.868 65.8372 104.323 64.6379 105.197 63.0419C105.64 62.1578 105.917 61.2001 106.015 60.2163C107.777 60.3226 109.544 60.1727 111.263 59.7713C111.263 60.2991 111.263 61.2513 111.604 61.4376C112.743 62.0069 114.709 57.4322 117.473 57.4322C118.339 57.4874 119.155 57.8552 119.77 58.4672C120.247 58.8196 120.635 59.2779 120.905 59.8059C121.174 60.3339 121.317 60.9173 121.323 61.5101C121.258 62.032 121.09 62.5359 120.829 62.9926C120.567 63.4492 120.218 63.8494 119.801 64.17C118.565 65.333 116.944 65.9999 115.247 66.0434C115.212 66.0474 115.178 66.0601 115.149 66.0804C115.119 66.1007 115.095 66.1279 115.079 66.1596C115.062 66.1913 115.054 66.2266 115.055 66.2623C115.055 66.2979 115.064 66.333 115.082 66.3642C116.775 69.1725 117.966 72.2547 118.601 75.4722C118.042 81.5684 117.804 84.1662 117.69 85.4289C116.738 96.8139 112.815 106.274 106.502 115.806C105.087 117.807 103.9 119.959 102.962 122.223C99.4739 111.262 90.8419 100.995 93.0258 89.3516C93.207 89.2778 93.3939 89.219 93.5847 89.1756C93.5847 89.3343 93.6158 89.4689 93.6779 89.5793C93.6853 89.6173 93.7002 89.6535 93.7217 89.6858C93.7432 89.7181 93.7708 89.7459 93.803 89.7675C93.8352 89.7891 93.8713 89.8042 93.9093 89.8119C93.9474 89.8195 93.9865 89.8196 94.0246 89.8121C94.0626 89.8047 94.0989 89.7897 94.1311 89.7683C94.1634 89.7468 94.1912 89.7192 94.2128 89.687C94.2344 89.6548 94.2495 89.6187 94.2572 89.5806C94.2648 89.5426 94.2649 89.5035 94.2575 89.4654V89.4033ZM101.171 46.1196C100.63 45.6806 100.022 45.3312 99.3704 45.0846C103.51 44.7017 106.709 43.5218 109.534 40.1994C109.845 40.365 111.604 41.2344 111.873 41.4104C114.875 46.0782 113.229 47.9826 112.132 53.7269C111.801 55.4553 111.469 57.2562 111.283 58.8397C109.568 59.275 107.805 59.4907 106.036 59.4815C106.119 58.6638 106.16 57.784 106.274 56.9353C106.487 56.8497 106.665 56.6958 106.781 56.4978C106.896 56.2999 106.943 56.069 106.914 55.8416C106.884 55.6142 106.78 55.403 106.617 55.2413C106.454 55.0796 106.243 54.9765 106.015 54.9482L93.5951 54.648C93.4072 54.6595 93.2261 54.7219 93.0711 54.8286C92.9162 54.9354 92.7932 55.0823 92.7155 55.2537C92.6378 55.425 92.6083 55.6143 92.6301 55.8012C92.652 55.9881 92.7244 56.1655 92.8395 56.3144C92.7674 57.9271 92.8193 59.543 92.9948 61.1478C92.4747 60.8874 91.9036 60.745 91.3221 60.7307C90.7407 60.7164 90.1633 60.8305 89.631 61.065C89.7183 59.6313 89.6628 58.1925 89.4654 56.7697C89.6065 56.6392 89.7116 56.4745 89.7705 56.2916C89.8294 56.1086 89.8401 55.9135 89.8016 55.7252C89.7631 55.5369 89.6767 55.3617 89.5507 55.2165C89.4248 55.0713 89.2635 54.9611 89.0825 54.8964C88.979 54.8964 89.1446 54.8964 82.5102 54.7308C82.593 52.6608 82.6241 46.9166 83.5452 44.1117C88.8237 48.0551 95.2511 49.2867 101.14 46.4508C101.179 46.4185 101.204 46.3725 101.209 46.3225C101.215 46.2724 101.202 46.222 101.171 46.1817V46.1196ZM105.622 57.0182C105.353 58.6224 105.467 60.3095 104.877 61.8102C104.263 63.3442 103.081 64.5822 101.577 65.2667C100.073 65.9511 98.3634 66.0291 96.8036 65.4845C96.0399 65.2275 95.3654 64.7579 94.8594 64.1309C94.3534 63.5039 94.0369 62.7454 93.9469 61.9447C93.6915 60.2322 93.5842 58.5008 93.6261 56.7697C95.3028 56.925 104.049 57.0492 105.622 57.0803V57.0182ZM88.7616 57.0182C89.0411 59.6264 89.186 64.2632 86.8675 65.5466C86.1786 65.8457 85.4347 65.9972 84.6837 65.9916C84.027 66.0486 83.3656 66.0173 82.7172 65.8984C82.0479 65.7876 81.4221 65.4941 80.909 65.0504C80.3958 64.6066 80.0151 64.0297 79.8088 63.3834C79.319 61.2148 79.1171 58.9911 79.2085 56.7697L88.7616 57.0182ZM103.127 134.322C100.674 130.41 92.115 117.162 89.8587 113.85C91.8648 112.077 94.0912 110.571 96.4827 109.368C97.1762 110.693 101.658 119.894 102.579 123.579C102.603 123.661 102.652 123.733 102.72 123.784C102.788 123.835 102.871 123.863 102.957 123.863C103.042 123.863 103.125 123.835 103.193 123.784C103.261 123.733 103.311 123.661 103.334 123.579C104.783 117.969 108.354 115.434 112.536 106.719C114.89 108.035 117.033 109.7 118.89 111.656C116.955 115.061 106.605 130.275 103.127 134.374V134.322ZM122.13 113.188C116.127 107.588 113.674 106.305 112.918 106.015C115.829 99.9269 117.687 93.3899 118.414 86.6813C121.416 89.01 124.521 91.2974 127.295 93.8331C126.694 96.6587 123.403 109.275 122.13 113.188ZM126.736 31.9298C152.994 43.8323 167.101 72.1395 157.134 102.206C152.031 100.002 132.397 94.0091 127.905 93.3156C126.643 92.115 120.66 87.4679 118.518 85.8429C118.518 85.3461 118.435 86.7951 119.263 76.7453C119.263 76.6314 121.571 65.1533 122.544 62.6485C123.066 61.3239 123.699 60.0462 124.438 58.8294C125.648 56.6415 126.016 54.0869 125.473 51.6465C125.271 50.8718 124.919 50.144 124.438 49.5041C125.489 48.4748 126.209 47.1561 126.508 45.716C126.788 43.5321 125.701 41.4104 124.645 39.5784C125.422 38.3549 125.865 36.9487 125.928 35.5005C125.9 34.9512 125.744 34.4162 125.473 33.9377C126.015 33.3602 126.431 32.6765 126.694 31.9298H126.736ZM84.0109 29.2491C87.1159 24.8504 93.326 25.9578 98.5734 27.0135C104.914 28.3063 111.082 30.3312 116.955 33.0476C117.021 33.0819 117.098 33.0886 117.169 33.0663C117.239 33.044 117.298 32.9944 117.333 32.9285C117.367 32.8626 117.374 32.7858 117.352 32.715C117.329 32.6441 117.28 32.5851 117.214 32.5508C111.535 29.7585 105.536 27.6729 99.3496 26.3408C96.3999 25.7094 92.8705 24.9746 89.8069 25.3058C93.3355 21.9867 97.8248 19.8707 102.631 19.2614C105.912 18.8474 106.853 19.5201 107.743 18.4127C108.185 17.8007 108.758 17.295 109.42 16.9326C111.128 16.0425 113.622 15.8976 116.603 17.595C118.212 18.5164 119.751 19.5541 121.209 20.7C122.67 21.7571 123.964 23.027 125.049 24.4674C126.067 25.8125 126.557 27.4843 126.425 29.1663C126.376 30.6435 125.854 32.0659 124.935 33.2235C124.53 32.7561 124.087 32.3233 123.61 31.9298C121.147 29.8598 112.867 24.0224 111.19 22.9977C111.12 22.9538 111.035 22.9395 110.955 22.9579C110.874 22.9763 110.804 23.026 110.761 23.096C110.717 23.166 110.702 23.2506 110.721 23.3312C110.739 23.4117 110.789 23.4816 110.859 23.5256C113.208 24.9953 120.453 30.4187 122.244 31.9401C123.403 32.9027 124.521 33.7721 124.852 34.7967C125.349 36.3803 124.438 37.9017 123.817 39.3714C123.786 39.4404 123.777 39.5175 123.792 39.5917C123.807 39.666 123.845 39.7337 123.9 39.7854C124.831 41.4621 125.908 43.8116 125.608 45.716C125.318 46.8956 124.705 47.971 123.838 48.8209C119.594 43.7701 109.482 38.1087 102.755 35.573C94.8681 32.5611 84.9114 32.5508 82.1997 33.6789C82.475 32.0884 83.093 30.5768 84.0109 29.2491ZM81.9409 31.226C81.6136 32.1941 81.3847 33.1927 81.2579 34.2068C80.4609 34.538 79.7468 35.8835 79.1879 38.0466C78.5151 40.9239 77.9252 43.4079 79.3638 45.8402C80.0136 46.9015 80.9216 47.781 82.0031 48.3966C81.8789 49.4316 81.558 53.2094 81.5891 54.7826L78.867 54.7205H78.7945C78.5925 54.7604 78.4069 54.8598 78.2616 55.0059C78.1164 55.1519 78.018 55.338 77.9791 55.5403C77.9402 55.7426 77.9625 55.9519 78.0433 56.1414C78.124 56.331 78.2595 56.4921 78.4323 56.6041C78.3866 58.8294 78.5182 61.0548 78.8256 63.2592C78.9828 64.0527 79.3559 64.7876 79.9037 65.3828C80.4515 65.9781 81.1528 66.4108 81.9306 66.6333C81.6426 70.3646 82.3987 74.1024 84.1144 77.4283C85.7203 80.5358 88.4189 82.9394 91.6906 84.1766C92.7256 84.5181 92.7257 84.4767 92.8292 85.0356C92.8292 85.0356 93.2639 87.6438 93.4088 88.4304C90.3532 88.9358 87.5745 90.5048 85.5634 92.8602C73.533 95.148 62.0323 99.6507 51.6465 106.139C48.6888 99.2324 47.1277 91.8084 47.0532 84.2953C46.9787 76.7822 48.3923 69.3287 51.2124 62.3646C54.0325 55.4005 58.2033 49.0635 63.4844 43.7192C68.7655 38.3748 75.0523 34.1288 81.9823 31.226H81.9409ZM49.68 14.252C50.2906 14.1899 50.2182 13.2687 49.68 13.3412C47.2581 13.4136 37.9741 13.7241 35.4694 13.7034C35.4007 13.7163 35.3386 13.7529 35.2939 13.8068C35.2492 13.8606 35.2248 13.9284 35.2248 13.9984C35.2248 14.0684 35.2492 14.1361 35.2939 14.19C35.3386 14.2439 35.4007 14.2804 35.4694 14.2934C37.7878 14.4072 47.3202 14.49 49.68 14.252ZM48.645 16.6946C47.7031 16.6946 37.7775 17.4708 35.7903 17.5019C35.7107 17.5019 35.6343 17.5335 35.5781 17.5898C35.5218 17.6461 35.4901 17.7224 35.4901 17.802C35.4901 17.8816 35.5218 17.958 35.5781 18.0142C35.6343 18.0705 35.7107 18.1022 35.7903 18.1022C37.4049 18.1022 47.5168 17.8331 48.7485 17.595C48.859 17.5711 48.9566 17.507 49.0224 17.4151C49.0882 17.3232 49.1176 17.2102 49.1046 17.0979C49.0917 16.9856 49.0375 16.8821 48.9526 16.8076C48.8676 16.7331 48.758 16.6928 48.645 16.6946ZM50.2906 20.7828C50.2906 20.7828 37.5912 21.2589 36.3802 21.2693C36.3012 21.2832 36.2295 21.3245 36.1779 21.3861C36.1262 21.4476 36.0979 21.5253 36.0979 21.6056C36.0979 21.6859 36.1262 21.7637 36.1779 21.8252C36.2295 21.8867 36.3012 21.9281 36.3802 21.942C41.0377 21.942 45.6952 22.118 50.3217 21.7454C50.437 21.725 50.541 21.6638 50.6148 21.5729C50.6886 21.482 50.7271 21.3676 50.7234 21.2506C50.7196 21.1336 50.6738 21.0219 50.5943 20.936C50.5148 20.8501 50.407 20.7957 50.2906 20.7828ZM120.06 175.143L119.294 174.749C119.267 174.734 119.237 174.726 119.206 174.726C119.175 174.726 119.145 174.734 119.118 174.749C118.115 175.601 117.31 176.66 116.758 177.854C116.743 177.892 116.742 177.933 116.755 177.972C116.769 178.01 116.796 178.042 116.831 178.061C117.57 178.445 118.389 178.651 119.222 178.662C121.975 178.662 123.714 176.302 125.266 174.108C126.612 172.183 128.299 169.792 127.46 167.473C127.173 166.699 126.675 166.022 126.022 165.517C125.995 165.492 125.96 165.479 125.923 165.479C125.887 165.479 125.852 165.492 125.825 165.517C124.756 166.329 123.909 167.397 123.362 168.622C123.345 168.646 123.336 168.675 123.336 168.705C123.336 168.735 123.345 168.764 123.362 168.788L124.2 169.585C123.232 171.711 121.821 173.606 120.06 175.143ZM117.483 173.776C116.777 174.575 116.144 175.434 115.589 176.343C115.32 176.933 116.106 177.223 116.313 176.861C116.892 175.968 117.528 175.114 118.218 174.304C118.435 174.077 117.99 173.435 117.483 173.776ZM122.699 167.867C122.764 167.869 122.829 167.856 122.888 167.829C122.947 167.802 123 167.762 123.041 167.711C123.623 166.821 124.259 165.967 124.945 165.155C125.173 164.917 124.728 164.286 124.2 164.637C123.502 165.433 122.875 166.288 122.327 167.194C122.287 167.261 122.265 167.337 122.264 167.415C122.263 167.492 122.282 167.569 122.32 167.637C122.357 167.705 122.412 167.762 122.479 167.803C122.545 167.843 122.621 167.865 122.699 167.867ZM153.573 154.619C153.639 154.619 153.704 154.605 153.764 154.576C153.823 154.547 153.875 154.505 153.915 154.453C153.955 154.401 153.983 154.34 153.995 154.275C154.008 154.211 154.005 154.144 153.987 154.08L154.225 146.835C154.225 146.277 154.277 145.583 153.635 145.221C152.994 144.859 51.7086 144.621 51.8224 144.621C51.7869 144.622 51.7522 144.632 51.7216 144.65C51.6909 144.668 51.6651 144.694 51.6465 144.724C51.3282 147.472 51.2003 150.239 51.2635 153.004C51.3846 153.255 51.5794 153.462 51.8217 153.599C52.064 153.736 52.3423 153.796 52.6194 153.77C54.0373 153.77 153.573 154.619 153.573 154.619ZM153.366 146.856C153.366 147.094 153.366 146.949 153.18 153.739C148.336 153.594 53.0334 152.849 52.3192 152.807C51.9984 152.694 51.9984 152.383 52.0191 151.897L52.2157 145.49C57.2976 145.635 152.714 145.883 153.108 145.914C153.501 145.945 153.397 146.37 153.366 146.856ZM60.7959 184.81C60.9167 184.81 61.0325 184.762 61.1179 184.676C61.2033 184.591 61.2513 184.475 61.2513 184.354C61.2513 184.233 61.2033 184.118 61.1179 184.032C61.0325 183.947 60.9167 183.899 60.7959 183.899C58.4775 184.033 49.09 184.292 46.5853 184.261C46.5166 184.274 46.4545 184.311 46.4098 184.364C46.3651 184.418 46.3407 184.486 46.3407 184.556C46.3407 184.626 46.3651 184.694 46.4098 184.748C46.4545 184.801 46.5166 184.838 46.5853 184.851C48.8934 184.965 58.4051 185.037 60.7959 184.81ZM59.7091 187.252C58.7776 187.252 48.852 188.028 46.8544 188.059C46.7748 188.059 46.6985 188.091 46.6422 188.147C46.5859 188.204 46.5543 188.28 46.5543 188.36C46.5543 188.439 46.5859 188.516 46.6422 188.572C46.6985 188.628 46.7748 188.66 46.8544 188.66C48.7278 188.66 58.6224 188.38 59.8127 188.153C59.9231 188.129 60.0208 188.065 60.0866 187.973C60.1524 187.881 60.1817 187.768 60.1688 187.656C60.1559 187.543 60.1017 187.44 60.0167 187.365C59.9318 187.291 59.8222 187.25 59.7091 187.252ZM61.3859 191.351C61.3859 191.351 48.7071 191.817 47.4651 191.827C47.386 191.841 47.3143 191.882 47.2627 191.944C47.2111 192.005 47.1828 192.083 47.1828 192.163C47.1828 192.244 47.2111 192.321 47.2627 192.383C47.3143 192.444 47.386 192.486 47.4651 192.5C52.1019 192.5 56.7801 192.676 61.3962 192.303C61.4587 192.302 61.5205 192.289 61.578 192.265C61.6355 192.24 61.6876 192.205 61.7313 192.16C61.7751 192.115 61.8096 192.062 61.8329 192.004C61.8562 191.946 61.8678 191.884 61.8671 191.822C61.8664 191.759 61.8535 191.697 61.8289 191.64C61.8043 191.582 61.7687 191.53 61.724 191.487C61.6793 191.443 61.6265 191.408 61.5684 191.385C61.5104 191.362 61.4484 191.35 61.3859 191.351ZM93.7606 184.81C93.8814 184.81 93.9973 184.762 94.0827 184.676C94.1681 184.591 94.216 184.475 94.216 184.354C94.216 184.233 94.1681 184.118 94.0827 184.032C93.9973 183.947 93.8814 183.899 93.7606 183.899C91.4215 184.023 82.0445 184.292 79.5501 184.261C79.4813 184.274 79.4192 184.311 79.3746 184.364C79.3299 184.418 79.3054 184.486 79.3054 184.556C79.3054 184.626 79.3299 184.694 79.3746 184.748C79.4192 184.801 79.4813 184.838 79.5501 184.851C81.8685 184.965 91.3594 185.037 93.7606 184.81ZM92.6739 187.252C91.7424 187.252 81.8168 188.028 79.8192 188.059C79.7396 188.059 79.6633 188.091 79.607 188.147C79.5507 188.204 79.5191 188.28 79.5191 188.36C79.5191 188.439 79.5507 188.516 79.607 188.572C79.6633 188.628 79.7396 188.66 79.8192 188.66C81.6822 188.66 91.5768 188.38 92.767 188.153C92.8766 188.129 92.9735 188.066 93.0393 187.975C93.1051 187.884 93.1351 187.772 93.1236 187.661C93.112 187.549 93.0598 187.446 92.9768 187.371C92.8938 187.295 92.786 187.253 92.6739 187.252ZM94.361 191.351C94.361 191.351 81.6719 191.817 80.4402 191.827C80.3611 191.841 80.2894 191.882 80.2378 191.944C80.1862 192.005 80.1579 192.083 80.1579 192.163C80.1579 192.244 80.1862 192.321 80.2378 192.383C80.2894 192.444 80.3611 192.486 80.4402 192.5C85.077 192.5 89.7552 192.676 94.3713 192.303C94.4976 192.302 94.6181 192.25 94.7064 192.16C94.7948 192.07 94.8436 191.948 94.8422 191.822C94.8409 191.695 94.7894 191.575 94.6991 191.487C94.6089 191.398 94.4872 191.349 94.361 191.351ZM127.74 184.81C127.86 184.81 127.976 184.762 128.062 184.676C128.147 184.591 128.195 184.475 128.195 184.354C128.195 184.233 128.147 184.118 128.062 184.032C127.976 183.947 127.86 183.899 127.74 183.899C125.401 184.033 116.034 184.292 113.519 184.261C113.45 184.274 113.388 184.311 113.343 184.364C113.299 184.418 113.274 184.486 113.274 184.556C113.274 184.626 113.299 184.694 113.343 184.748C113.388 184.801 113.45 184.838 113.519 184.851C115.848 184.965 125.339 185.037 127.74 184.81ZM126.653 187.252C125.732 187.252 115.796 188.028 113.809 188.059C113.729 188.059 113.653 188.091 113.596 188.147C113.54 188.204 113.508 188.28 113.508 188.36C113.508 188.439 113.54 188.516 113.596 188.572C113.653 188.628 113.729 188.66 113.809 188.66C115.672 188.66 125.566 188.38 126.767 188.153C126.879 188.129 126.977 188.064 127.043 187.971C127.11 187.878 127.138 187.763 127.124 187.65C127.11 187.537 127.053 187.433 126.966 187.359C126.879 187.286 126.767 187.247 126.653 187.252ZM128.34 191.351C128.34 191.351 115.651 191.817 114.419 191.827C114.34 191.841 114.268 191.882 114.217 191.944C114.165 192.005 114.137 192.083 114.137 192.163C114.137 192.244 114.165 192.321 114.217 192.383C114.268 192.444 114.34 192.486 114.419 192.5C119.056 192.5 123.734 192.676 128.35 192.303C128.477 192.302 128.597 192.25 128.685 192.16C128.774 192.07 128.823 191.948 128.821 191.822C128.82 191.695 128.768 191.575 128.678 191.487C128.588 191.398 128.466 191.349 128.34 191.351ZM160.787 184.81C160.908 184.81 161.024 184.762 161.109 184.676C161.195 184.591 161.243 184.475 161.243 184.354C161.243 184.233 161.195 184.118 161.109 184.032C161.024 183.947 160.908 183.899 160.787 183.899C158.469 184.023 149.081 184.292 146.566 184.261C146.498 184.274 146.435 184.311 146.391 184.364C146.346 184.418 146.322 184.486 146.322 184.556C146.322 184.626 146.346 184.694 146.391 184.748C146.435 184.801 146.498 184.838 146.566 184.851C148.895 184.965 158.355 185.037 160.787 184.81ZM159.701 187.252C158.779 187.252 148.843 188.028 146.856 188.059C146.777 188.059 146.7 188.091 146.644 188.147C146.588 188.204 146.556 188.28 146.556 188.36C146.556 188.439 146.588 188.516 146.644 188.572C146.7 188.628 146.777 188.66 146.856 188.66C148.719 188.66 158.614 188.38 159.814 188.153C159.926 188.129 160.025 188.064 160.091 187.971C160.157 187.878 160.186 187.763 160.172 187.65C160.157 187.537 160.101 187.433 160.014 187.359C159.926 187.286 159.815 187.247 159.701 187.252ZM161.388 191.351C161.388 191.351 148.698 191.817 147.467 191.827C147.388 191.841 147.316 191.882 147.264 191.944C147.213 192.005 147.184 192.083 147.184 192.163C147.184 192.244 147.213 192.321 147.264 192.383C147.316 192.444 147.388 192.486 147.467 192.5C152.093 192.5 156.782 192.676 161.398 192.303C161.524 192.302 161.645 192.25 161.733 192.16C161.821 192.07 161.87 191.948 161.869 191.822C161.867 191.695 161.816 191.575 161.726 191.487C161.635 191.398 161.514 191.349 161.388 191.351ZM62.9384 179.107L60.5372 179.055C60.5372 177.834 60.4543 174.687 60.4129 173.714C60.7249 173.454 60.9261 173.084 60.9761 172.681C61.026 172.277 60.9209 171.87 60.6821 171.541C60.5889 171.406 60.682 171.437 57.753 171.541V169.471C57.935 169.213 58.0573 168.917 58.111 168.605C58.1647 168.294 58.1485 167.974 58.0635 167.67C58.0518 167.624 58.0249 167.584 57.9872 167.556C57.9496 167.528 57.9035 167.513 57.8565 167.515L54.1719 167.629C54.1098 166.842 53.8407 164.016 53.7372 163.83C53.6667 163.696 53.5486 163.592 53.406 163.54C54.6894 161.688 52.6711 161.036 53.0644 160.083C53.23 159.68 52.6297 159.4 52.3917 159.773C51.8097 160.552 51.3619 161.423 51.0669 162.35C51.076 162.625 51.1525 162.893 51.2896 163.131C51.4268 163.37 51.6204 163.571 51.8535 163.716C51.7033 163.776 51.5766 163.883 51.4926 164.021C51.4086 164.16 51.3718 164.321 51.3878 164.482V167.701L48.438 167.794C48.3954 167.795 48.3543 167.809 48.3207 167.836C48.2871 167.862 48.2629 167.898 48.2517 167.939C48.1378 168.271 48.1103 168.627 48.1719 168.973C48.2335 169.319 48.382 169.643 48.6036 169.916C48.6036 170.506 48.676 171.313 48.7381 171.893C45.7573 172.017 45.8712 171.976 45.778 172.079C45.0328 172.969 44.5567 174.511 45.4365 175.184V178.941H43.6977C43.6126 178.941 43.531 178.975 43.4708 179.035C43.4107 179.095 43.3768 179.177 43.3768 179.262C43.3768 179.347 43.4107 179.429 43.4708 179.489C43.531 179.549 43.6126 179.583 43.6977 179.583C43.8115 179.583 62.8038 179.811 62.9797 179.79C63.0703 179.784 63.155 179.743 63.2152 179.675C63.2754 179.607 63.3061 179.518 63.3006 179.428C63.2951 179.337 63.2539 179.252 63.1859 179.192C63.118 179.132 63.0289 179.101 62.9384 179.107ZM53.4267 167.67H52.1329V164.399C52.4685 164.298 52.8176 164.249 53.1679 164.255C53.1886 164.689 53.3749 166.997 53.4267 167.67ZM51.8328 162.288C52.0181 161.875 52.2361 161.476 52.4848 161.098C52.8264 161.76 53.3232 162.133 53.0334 162.785C52.9087 163.011 52.7594 163.223 52.5884 163.416C52.1329 163.095 51.75 162.723 51.8328 162.267V162.288ZM51.6051 169.585C51.7444 169.879 51.9642 170.127 52.2391 170.301C52.5139 170.475 52.8324 170.567 53.1576 170.567C53.4828 170.567 53.8013 170.475 54.0761 170.301C54.351 170.127 54.5708 169.879 54.7101 169.585C54.9898 169.852 55.3354 170.041 55.7116 170.132C56.0879 170.223 56.4815 170.213 56.8525 170.102V171.624L49.4626 171.914C49.4626 171.406 49.4109 170.878 49.3695 170.402C49.7832 170.48 50.2101 170.443 50.6041 170.295C50.9982 170.147 51.3443 169.894 51.6051 169.564V169.585ZM46.2127 178.9V175.412C46.6768 175.447 47.1428 175.381 47.5788 175.218C48.0148 175.055 48.4103 174.8 48.7381 174.47C49.1179 174.81 49.6099 174.999 50.1199 174.999C50.6298 174.999 51.1219 174.81 51.5016 174.47C52.7022 175.784 54.5031 175.174 55.4967 173.714C55.6931 173.993 55.9497 174.223 56.2475 174.389C56.5453 174.555 56.8765 174.651 57.2167 174.671C57.5568 174.691 57.8971 174.634 58.2121 174.504C58.5272 174.374 58.8089 174.175 59.0364 173.921C59.2556 173.98 59.4836 173.997 59.7091 173.973C59.7091 175.07 59.7091 177.844 59.7816 179.003C56.6041 178.983 48.2931 178.92 46.2127 178.92V178.9Z" fill="#0D1321"/>
<path d="M186.238 62.3484C184.603 61.1892 185.762 61.3134 183.381 53.4784C182.574 50.8185 181.674 47.6203 179.241 46.5957C179.241 38.8746 179.241 6.70678 179.293 5.60968C179.336 5.54029 179.359 5.46077 179.36 5.37938C179.362 5.298 179.341 5.21773 179.301 5.14693C179.261 5.07613 179.202 5.01739 179.132 4.97681C179.061 4.93624 178.981 4.91532 178.9 4.91623C159.338 4.91623 37.7361 5.46478 26.9514 5.58898C26.8862 5.59032 26.8222 5.60705 26.7647 5.6378C26.7072 5.66854 26.6578 5.71244 26.6205 5.76591C26.5832 5.81937 26.559 5.8809 26.5499 5.94548C26.5409 6.01006 26.5472 6.07586 26.5684 6.13753C26.3097 19.7478 25.9371 94.0608 25.8439 122.399C20.3519 127.223 16.0393 133.242 13.2376 139.994C8.18685 152.342 7.8867 161.729 12.3579 167.763C15.318 171.8 21.2278 176.333 25.9164 174.253C25.7715 193.98 25.7301 199.745 25.8439 201.411C25.8957 202.187 25.9888 202.073 26.1027 202.073C26.2165 202.073 172.11 201.804 178.579 201.732C178.66 201.732 178.739 201.709 178.809 201.668C178.878 201.626 178.934 201.565 178.972 201.494C179.024 201.39 179.252 155.24 179.428 142.996C180.69 142.961 181.928 142.636 183.044 142.045C184.161 141.455 185.126 140.615 185.865 139.59C188.4 136.419 190.489 132.916 192.075 129.178C194.414 123.02 196.101 118.58 197.085 111.697C199.258 96.5344 195.998 79.9744 189.446 66.24C188.277 63.7663 188.442 63.9112 186.238 62.3484ZM22.77 167.318C20.8242 166.418 19.0543 162.36 19.7685 158.862C20.3315 156.564 21.6067 154.503 23.4117 152.973C24.2362 152.156 25.1412 151.424 26.113 150.789V154.36C25.3382 154.892 24.6415 155.529 24.043 156.254C23.9965 156.327 23.9788 156.415 23.9933 156.501C24.0078 156.587 24.0536 156.664 24.1217 156.718C24.1898 156.772 24.2756 156.799 24.3623 156.794C24.4491 156.788 24.5307 156.751 24.5916 156.689C25.6087 155.685 26.7791 154.85 28.0588 154.215C28.9593 153.811 29.1456 153.998 28.9282 154.836C28.7411 155.845 28.2457 156.77 27.5103 157.486C26.7761 158.076 25.9648 158.564 25.0987 158.935C24.6301 159.136 24.1857 159.389 23.7739 159.69C23.7193 159.745 23.6862 159.818 23.6809 159.895C23.6755 159.972 23.6983 160.048 23.7449 160.11C23.7915 160.172 23.8589 160.215 23.9346 160.231C24.0103 160.247 24.0893 160.235 24.1569 160.197C24.9849 159.649 27.5827 158.841 29.011 157.837C30.046 157.123 30.1392 157.662 29.7873 158.728C29.0628 160.87 26.5477 161.977 24.8814 163.323C24.8235 163.381 24.7878 163.458 24.7805 163.54C24.7733 163.622 24.7948 163.703 24.8415 163.771C24.8882 163.839 24.9571 163.888 25.0362 163.91C25.1153 163.932 25.1997 163.926 25.2747 163.892C25.7404 163.633 26.2062 163.313 26.8686 162.857C27.531 162.402 29.4043 161.46 30.0874 161.822C30.1646 161.858 30.23 161.915 30.2758 161.986C30.3217 162.058 30.3461 162.141 30.3462 162.226C30.4497 162.971 29.8287 163.696 29.1973 164.503C26.2993 168.208 23.9085 167.867 22.77 167.318ZM178.175 200.79C169.171 200.842 33.6582 201.183 26.6098 201.266C26.6926 198.316 26.6098 179.666 26.6616 167.887C28.0683 166.818 29.365 165.612 30.5325 164.286C30.8223 163.882 31.7227 162.485 31.0189 161.388C30.8618 161.152 30.6379 160.969 30.376 160.862C30.1141 160.755 29.8262 160.729 29.5492 160.787C30.2633 160.045 30.7141 159.088 30.8326 158.065C30.8326 157.744 30.9258 157.03 30.3151 156.73C30.1013 156.66 29.8742 156.64 29.6516 156.673C29.429 156.705 29.2168 156.788 29.0317 156.916C29.1249 156.771 29.1973 156.627 29.2801 156.471C29.6527 155.736 30.1702 154.049 29.7562 153.428C29.187 152.59 27.738 153.283 26.8686 153.801C26.9307 57.132 27.4275 22.5319 27.3757 6.39628C37.3842 6.39628 172.183 5.84773 178.486 5.80633C178.403 11.5506 178.268 51.0772 178.268 51.0772C176.55 51.3598 174.904 51.9789 173.425 52.8988C173.02 53.0941 172.682 53.4035 172.452 53.7889C172.373 53.924 172.325 54.0743 172.309 54.2297C172.294 54.3851 172.312 54.542 172.362 54.6899C172.412 54.8379 172.493 54.9734 172.599 55.0876C172.706 55.2017 172.835 55.2918 172.98 55.3518C172.555 55.6071 172.2 55.9624 171.945 56.3868C171.841 56.7887 171.889 57.2147 172.08 57.5833C172.271 57.9518 172.591 58.237 172.98 58.3843C171.882 59.3676 172.1 61.096 174.315 61.4169C175.663 61.6061 177.035 61.5465 178.362 61.2409C178.972 70.38 178.072 194.942 178.175 200.79ZM179.417 63.4558C179.355 62.7003 179.283 61.9033 179.19 61.0546C179.853 60.8534 180.497 60.5936 181.115 60.2784C181.549 60.061 181.197 59.409 180.763 59.6263C179.116 60.3918 177.308 60.7469 175.495 60.6613C174.822 60.6613 173.694 60.6613 173.425 60.0093C173.155 59.3572 173.808 58.8708 174.253 58.7466C176.206 59.0388 178.2 58.6748 179.924 57.7116C180.007 57.6677 180.068 57.5928 180.095 57.5035C180.123 57.4142 180.113 57.3178 180.069 57.2355C180.025 57.1531 179.951 57.0916 179.861 57.0644C179.772 57.0372 179.676 57.0467 179.593 57.0906C178.037 57.8382 176.295 58.1117 174.584 57.8772C173.362 57.7116 172.793 57.37 172.814 56.8422C172.814 56.5938 173.849 55.8072 174.263 55.6312C176.096 55.8914 177.957 55.8914 179.79 55.6312C180.256 55.5691 180.193 54.855 179.728 54.9171C178.341 55.093 173.89 54.9792 173.466 54.6066C173.421 54.5774 173.384 54.5376 173.359 54.4906C173.333 54.4436 173.32 54.391 173.32 54.3375C173.32 54.284 173.333 54.2314 173.359 54.1844C173.384 54.1374 173.421 54.0975 173.466 54.0684C174.563 52.9299 178.475 51.781 179.521 51.6154C179.603 51.6058 179.678 51.5639 179.73 51.4989C179.781 51.4338 179.805 51.3511 179.795 51.2687C179.785 51.1864 179.743 51.1112 179.678 51.0598C179.613 51.0083 179.531 50.9848 179.448 50.9944H179.272V47.4651C181.135 48.5725 181.86 51.1083 182.439 53.1576C185.048 62.2552 183.557 61.6549 186.217 63.4455C186.642 63.7142 187.037 64.0264 187.397 64.377C184.758 66.0123 181.767 65.412 179.417 63.4869V63.4558Z" fill="#0D1321"/>
<path d="M111.211 113.426C110.971 113.426 110.737 113.497 110.538 113.63C110.339 113.763 110.184 113.952 110.092 114.173C110 114.394 109.976 114.638 110.023 114.873C110.07 115.108 110.185 115.324 110.354 115.493C110.524 115.662 110.74 115.778 110.974 115.824C111.209 115.871 111.453 115.847 111.674 115.755C111.895 115.664 112.085 115.508 112.218 115.309C112.351 115.11 112.422 114.876 112.422 114.637C112.422 114.315 112.294 114.007 112.067 113.78C111.84 113.553 111.532 113.426 111.211 113.426ZM107.64 119.346C107.374 119.346 107.114 119.425 106.892 119.573C106.671 119.72 106.499 119.931 106.397 120.176C106.295 120.422 106.268 120.693 106.32 120.954C106.372 121.215 106.5 121.455 106.689 121.643C106.877 121.831 107.116 121.959 107.377 122.011C107.638 122.063 107.909 122.036 108.155 121.934C108.401 121.833 108.611 121.66 108.759 121.439C108.907 121.218 108.985 120.957 108.985 120.691C108.985 120.334 108.844 119.992 108.591 119.74C108.339 119.488 107.997 119.346 107.64 119.346ZM104.431 124.542C104.227 124.542 104.027 124.602 103.856 124.716C103.686 124.83 103.554 124.991 103.475 125.18C103.397 125.37 103.376 125.578 103.416 125.778C103.456 125.979 103.555 126.164 103.7 126.308C103.844 126.453 104.029 126.552 104.23 126.592C104.43 126.632 104.638 126.611 104.828 126.533C105.017 126.454 105.178 126.322 105.292 126.152C105.406 125.981 105.466 125.781 105.466 125.577C105.466 125.302 105.357 125.039 105.163 124.845C104.969 124.651 104.706 124.542 104.431 124.542Z" fill="#0D1321"/>
</svg>
